<svg width="28" height="59" viewBox="0 0 28 59" fill="none" xmlns="http://www.w3.org/2000/svg">
<path d="M28 0H0V7.45928H28V0Z" fill="black"/>
<path d="M28 50.7393H0V58.1985H28V50.7393Z" fill="black"/>
<path d="M19.1044 29.4328C18.7394 29.7465 18.3142 29.9825 17.8549 30.1265C17.3279 30.3002 16.7901 30.4392 16.245 30.5428C15.671 30.6543 15.0695 30.747 14.4406 30.821C13.8116 30.8949 13.1825 30.9871 12.5531 31.0978C11.9614 31.209 11.3774 31.3576 10.8044 31.5426C10.2686 31.7096 9.76323 31.9623 9.3081 32.2908C8.88097 32.6068 8.53022 33.0148 8.28174 33.4844C8.02237 33.966 7.89292 34.5768 7.89337 35.3168C7.89337 36.0201 8.02283 36.612 8.28174 37.0927C8.52575 37.5592 8.88995 37.952 9.33666 38.2306C9.81348 38.5208 10.3407 38.7186 10.8908 38.8135C11.4948 38.9262 12.1081 38.9822 12.7225 38.9808C14.2769 38.9808 15.4785 38.7216 16.3273 38.2034C17.1761 37.6851 17.8048 37.0655 18.2134 36.3445C18.6038 35.6693 18.8579 34.924 18.9616 34.151C19.0415 33.5622 19.0869 32.9692 19.0976 32.3751L19.1044 29.4328ZM0.895241 23.6038C1.00679 21.7538 1.4693 20.218 2.28276 18.9964C3.08068 17.791 4.14423 16.7844 5.39175 16.0541C6.65004 15.3141 8.06568 14.7867 9.63865 14.472C11.2015 14.1589 12.7915 14.0007 14.3855 14C15.8524 14.0021 17.3174 14.1041 18.7704 14.3054C20.1758 14.4861 21.5438 14.8881 22.8235 15.4963C24.0106 16.0607 25.0402 16.9092 25.8209 17.9667C26.5986 19.0236 26.9874 20.422 26.9874 22.1619V37.0934C26.9842 38.3367 27.0585 39.579 27.2098 40.8131C27.3581 41.9975 27.6172 42.8856 27.9872 43.4773H19.9927C19.8431 43.0321 19.7222 42.5777 19.6308 42.117C19.5372 41.6496 19.4725 41.1769 19.437 40.7016C18.2151 41.9749 16.6857 42.9119 14.9962 43.4222C13.3054 43.938 11.5472 44.1998 9.77945 44.1989C8.48569 44.2086 7.19676 44.0404 5.9488 43.699C4.81997 43.3934 3.76362 42.8653 2.84185 42.1456C1.94707 41.4342 1.23359 40.521 0.759891 39.4807C0.261109 38.4074 0.0117188 37.1305 0.0117188 35.6501C0.0117188 34.0227 0.298743 32.681 0.872795 31.6249C1.44685 30.5688 2.18527 29.727 3.08807 29.0995C4.03512 28.4521 5.08693 27.9732 6.19706 27.6841C7.3576 27.3714 8.53417 27.1217 9.72163 26.9359C10.9056 26.7509 12.0716 26.6028 13.2197 26.4918C14.2481 26.4006 15.2684 26.2335 16.2722 25.9918C17.1605 25.7701 17.8633 25.4464 18.3807 25.0206C18.8981 24.5948 19.1386 23.9749 19.1023 23.161C19.1023 22.3104 18.9634 21.635 18.6854 21.1348C18.4261 20.6542 18.0428 20.2516 17.5754 19.9691C17.0814 19.6803 16.5356 19.4913 15.9689 19.4127C15.3157 19.3184 14.6564 19.2729 13.9964 19.2767C12.442 19.2767 11.2209 19.6097 10.3331 20.2758C9.44526 20.9419 8.92721 22.0528 8.77893 23.6086L0.895241 23.6038Z" fill="black"/>
</svg>
