<svg width="304" height="60" viewBox="0 0 304 60" fill="none" xmlns="http://www.w3.org/2000/svg">
<path d="M19.455 29.975C19.0838 30.2957 18.6504 30.5362 18.1819 30.6815C17.6456 30.8614 17.098 31.0054 16.5426 31.1123C15.9588 31.2265 15.3449 31.3278 14.7051 31.3945C14.0653 31.4613 13.4234 31.5647 12.7836 31.6789C12.1805 31.7908 11.5854 31.9419 11.0021 32.1313C10.4546 32.3001 9.93866 32.5577 9.47478 32.8938C9.04041 33.216 8.68347 33.6311 8.43001 34.1088C8.1455 34.6882 8.0093 35.3292 8.03364 35.9743C8.01275 36.6011 8.14901 37.2231 8.43001 37.7838C8.6795 38.2591 9.05132 38.6591 9.50709 38.9427C9.99308 39.2381 10.5301 39.4397 11.0904 39.5373C11.7057 39.6513 12.3302 39.7082 12.9559 39.7074C14.5356 39.7074 15.7599 39.4432 16.6287 38.9147C17.4226 38.4601 18.0853 37.8078 18.5524 37.0212C18.95 36.3335 19.2091 35.5746 19.315 34.7873C19.3982 34.1875 19.4457 33.5833 19.4571 32.9779L19.455 29.975ZM0.909841 24.0402C1.02473 22.1561 1.49577 20.5914 2.32297 19.3463C3.13521 18.1171 4.21851 17.0906 5.48958 16.3456C6.83079 15.5696 8.29308 15.0248 9.81514 14.7343C11.4067 14.4156 13.0259 14.2547 14.6491 14.2539C16.143 14.2563 17.6349 14.3607 19.1146 14.5663C20.5485 14.751 21.9439 15.1625 23.2485 15.7855C24.4581 16.3593 25.5068 17.2237 26.3009 18.3016C27.0936 19.3743 27.4893 20.7968 27.4878 22.569V37.7773C27.4842 39.0439 27.5605 40.3095 27.7162 41.5665C27.8598 42.7728 28.1233 43.6768 28.5068 44.2786H20.3597C20.2075 43.8252 20.0845 43.3625 19.9914 42.8934C19.8954 42.4177 19.8292 41.9363 19.7932 41.4523C18.5484 42.7491 16.9904 43.7032 15.2695 44.2226C13.5471 44.7488 11.7561 45.016 9.95515 45.0153C8.63746 45.0256 7.32465 44.8538 6.05397 44.5047C4.90306 44.1943 3.82623 43.6559 2.88736 42.9214C1.97626 42.1978 1.24981 41.2683 0.767666 40.2094C0.230025 38.9807 -0.0310413 37.6489 0.00293858 36.3082C0.00293858 34.6495 0.295188 33.2852 0.879683 32.2153C1.41975 31.1912 2.1949 30.3097 3.14155 29.6432C4.10588 28.9834 5.17727 28.4959 6.30816 28.2021C7.4882 27.8805 8.6848 27.6231 9.89268 27.4309C11.099 27.2428 12.2867 27.092 13.4557 26.9785C14.5051 26.8864 15.5463 26.7165 16.5706 26.4701C17.3527 26.3034 18.0884 25.9657 18.7247 25.4814C19.2518 25.0505 19.4974 24.4187 19.4615 23.5857C19.4615 22.7241 19.3178 22.0369 19.0306 21.5242C18.7667 21.0339 18.3762 20.6232 17.8997 20.3351C17.3952 20.042 16.8384 19.8503 16.2604 19.7707C15.5955 19.6747 14.9245 19.6279 14.2527 19.6307C12.673 19.6307 11.4293 19.9696 10.5217 20.6474C9.61408 21.3253 9.08631 22.4562 8.93839 24.0402H0.909841Z" fill="white"/>
<path d="M40.6955 15.0535V19.0107H40.8075C41.795 17.5652 43.1008 16.3654 44.6247 15.5037C46.1949 14.6543 47.9581 14.2254 49.743 14.2586C51.4886 14.2384 53.217 14.6063 54.8031 15.3357C56.3282 16.0538 57.4872 17.3161 58.2799 19.1227C59.22 17.7696 60.4185 16.6158 61.8063 15.7278C63.2955 14.7498 65.0576 14.2601 67.0926 14.2586C68.5481 14.2456 69.9982 14.4363 71.4009 14.8252C72.6526 15.1668 73.8119 15.7843 74.7937 16.6325C75.7761 17.5255 76.5316 18.6399 76.9974 19.8831C77.5245 21.223 77.788 22.8351 77.788 24.7192V44.279H69.753V27.7135C69.753 26.7355 69.7149 25.8121 69.6388 24.9432C69.5858 24.1557 69.3741 23.3871 69.0162 22.6835C68.6729 22.0386 68.1489 21.5078 67.5083 21.1562C66.8491 20.78 65.9537 20.5919 64.8221 20.5919C63.6904 20.5919 62.7764 20.8073 62.0799 21.2381C61.399 21.6567 60.8351 22.2406 60.4405 22.9356C60.0333 23.67 59.7653 24.4733 59.65 25.3052C59.5169 26.1944 59.4506 27.0923 59.4518 27.9914V44.2725H51.434V27.8837C51.434 27.022 51.4153 26.1647 51.378 25.3116C51.3485 24.5085 51.1862 23.7158 50.8976 22.9657C50.6193 22.2571 50.1249 21.6541 49.4845 21.2424C48.8239 20.8116 47.8531 20.5962 46.5721 20.5962C46.0606 20.6162 45.5539 20.7016 45.0641 20.8504C44.4016 21.0418 43.7861 21.369 43.2568 21.8111C42.6057 22.366 42.09 23.0623 41.7489 23.8468C41.3353 24.7314 41.1285 25.8904 41.1285 27.3236V44.2833H33.1172V15.0535H40.6955Z" fill="white"/>
<path d="M100.967 21.8905C100.007 20.8378 98.546 20.31 96.5858 20.3072C95.3033 20.3072 94.2384 20.5226 93.3911 20.9534C92.6059 21.3389 91.9125 21.8884 91.3576 22.5647C90.8681 23.1657 90.502 23.8575 90.2805 24.6004C90.0888 25.2257 89.9653 25.87 89.9122 26.5219H102.975C102.599 24.4884 101.93 22.9431 100.967 21.8861M91.894 37.2647C93.1003 38.4337 94.8337 39.0182 97.0941 39.0182C98.7169 39.0182 100.111 38.6125 101.278 37.8011C102.444 36.9897 103.162 36.1323 103.432 35.229H110.493C109.364 38.7345 107.631 41.2413 105.293 42.7492C102.955 44.2571 100.128 45.0103 96.8119 45.0089C94.6885 45.0442 92.5778 44.6743 90.5929 43.9189C88.8168 43.2311 87.2147 42.1594 85.9011 40.7803C84.5918 39.378 83.5818 37.7237 82.9327 35.9183C82.217 33.9248 81.8632 31.8194 81.8879 29.7014C81.8713 27.6178 82.2364 25.5487 82.965 23.5965C83.6332 21.7787 84.6681 20.1177 86.0056 18.7169C87.343 17.3161 88.9544 16.2054 90.7394 15.4538C92.6617 14.644 94.7305 14.2399 96.8163 14.2669C99.3036 14.2669 101.471 14.7473 103.318 15.708C105.115 16.6296 106.674 17.9571 107.869 19.5855C109.076 21.2493 109.949 23.1306 110.441 25.126C110.973 27.2502 111.164 29.4453 111.008 31.6294H89.9186C90.0321 34.2302 90.692 36.1144 91.8983 37.2819" fill="white"/>
<path d="M122.724 15.0527V20.4791H122.836C123.216 19.5687 123.731 18.7205 124.363 17.963C124.996 17.1983 125.739 16.5319 126.567 15.9855C127.392 15.4399 128.288 15.0108 129.23 14.7102C130.18 14.4072 131.172 14.2546 132.17 14.2579C132.764 14.2688 133.354 14.3638 133.922 14.5401V22.0042C133.545 21.9295 133.093 21.8635 132.564 21.806C132.058 21.7512 131.549 21.7231 131.039 21.722C129.567 21.722 128.323 21.9669 127.306 22.4566C126.332 22.9103 125.487 23.6004 124.848 24.4643C124.207 25.3517 123.754 26.3613 123.519 27.4305C123.247 28.6364 123.114 29.8694 123.123 31.1055V44.2782H115.09V15.0527H122.724Z" fill="white"/>
<path d="M144.986 15.0508H136.957V44.2806H144.986V15.0508Z" fill="white"/>
<path d="M164.212 20.3068C162.93 20.3068 161.853 20.599 160.981 21.1835C160.113 21.7682 159.388 22.5414 158.861 23.4454C158.306 24.3906 157.915 25.4225 157.702 26.4979C157.478 27.5866 157.364 28.6951 157.362 29.8066C157.365 30.8925 157.479 31.9753 157.702 33.0379C157.908 34.0798 158.28 35.082 158.803 36.0063C159.307 36.8865 160.015 37.6333 160.867 38.1842C161.816 38.7711 162.918 39.0656 164.033 39.0307C165.956 39.0307 167.436 38.4936 168.471 37.4194C169.506 36.3452 170.157 34.9041 170.423 33.096H178.178C177.651 36.9735 176.143 39.9319 173.654 41.9712C171.165 44.0104 167.98 45.0279 164.098 45.0236C162.035 45.0488 159.987 44.675 158.066 43.9228C156.312 43.2358 154.722 42.1853 153.403 40.8402C152.097 39.4844 151.078 37.8792 150.406 36.1205C149.671 34.1955 149.306 32.1492 149.329 30.0888C149.319 27.9456 149.661 25.8153 150.344 23.7836C150.956 21.9233 151.947 20.2104 153.256 18.7536C154.56 17.322 156.162 16.1928 157.948 15.4449C159.795 14.6536 161.905 14.2579 164.279 14.2579C165.97 14.2521 167.654 14.4805 169.283 14.9365C170.827 15.362 172.282 16.061 173.579 17.0002C174.838 17.9186 175.888 19.0933 176.661 20.4468C177.452 21.8226 177.905 23.4526 178.018 25.3368H170.16C169.63 21.982 167.651 20.3046 164.223 20.3046" fill="white"/>
<path d="M200.298 29.975C199.927 30.2961 199.494 30.5367 199.025 30.6815C198.489 30.8617 197.941 31.0056 197.386 31.1123C196.802 31.2265 196.188 31.3278 195.548 31.3945C194.909 31.4613 194.267 31.5647 193.627 31.6789C193.024 31.7908 192.429 31.9419 191.845 32.1313C191.298 32.2993 190.783 32.557 190.32 32.8938C189.885 33.2153 189.527 33.6305 189.273 34.1088C188.989 34.6882 188.853 35.3292 188.877 35.9743C188.856 36.6011 188.992 37.2231 189.273 37.7838C189.523 38.2591 189.895 38.6591 190.35 38.9427C190.836 39.2377 191.372 39.4394 191.932 39.5373C192.548 39.6512 193.173 39.7081 193.799 39.7074C195.379 39.7074 196.604 39.4432 197.474 38.9147C198.267 38.4595 198.929 37.8073 199.396 37.0212C199.793 36.3335 200.052 35.5746 200.158 34.7873C200.242 34.1875 200.289 33.5833 200.3 32.9779L200.298 29.975ZM181.753 24.0402C181.868 22.1561 182.34 20.5914 183.168 19.3463C183.979 18.1167 185.062 17.0901 186.333 16.3456C187.674 15.5696 189.136 15.0248 190.658 14.7343C192.25 14.4158 193.869 14.2549 195.492 14.2539C196.986 14.2563 198.478 14.3607 199.958 14.5663C201.389 14.7503 202.782 15.1604 204.085 15.7812C205.295 16.355 206.344 17.2194 207.138 18.2973C207.93 19.37 208.327 20.7925 208.327 22.5646V37.773C208.319 39.0393 208.391 40.3049 208.542 41.5622C208.686 42.7685 208.949 43.6725 209.333 44.2743H201.203C201.051 43.8209 200.928 43.3582 200.835 42.8891C200.739 42.4133 200.674 41.932 200.639 41.448C199.393 42.7442 197.835 43.6981 196.115 44.2183C194.393 44.7447 192.602 45.0118 190.801 45.011C189.483 45.0214 188.17 44.8496 186.899 44.5004C185.749 44.19 184.672 43.6516 183.733 42.9171C182.822 42.1935 182.095 41.264 181.613 40.2051C181.077 38.9759 180.817 37.6443 180.851 36.3039C180.851 34.6452 181.142 33.2809 181.725 32.211C182.265 31.1869 183.04 30.3054 183.987 29.6389C184.951 28.9794 186.023 28.4918 187.154 28.1978C188.335 27.8782 189.533 27.6229 190.742 27.433C191.949 27.2449 193.136 27.0941 194.305 26.9807C195.353 26.8884 196.392 26.7185 197.414 26.4723C198.196 26.3048 198.931 25.9672 199.568 25.4835C200.094 25.0527 200.339 24.4208 200.303 23.5879C200.303 22.7262 200.159 22.039 199.872 21.5263C199.608 21.036 199.217 20.6254 198.741 20.3372C198.237 20.0438 197.68 19.8521 197.102 19.7729C196.437 19.6768 195.766 19.63 195.094 19.6328C193.514 19.6328 192.27 19.9718 191.363 20.6496C190.455 21.3274 189.927 22.4584 189.78 24.0424L181.753 24.0402Z" fill="white"/>
<path d="M221.551 15.0535V19.1227H221.721C222.639 17.5193 224.018 16.229 225.678 15.4197C227.229 14.6639 228.93 14.2677 230.655 14.2607C232.809 14.2607 234.57 14.553 235.939 15.1375C237.217 15.6487 238.339 16.4866 239.191 17.5674C240.021 18.6916 240.59 19.9857 240.859 21.3565C241.193 22.9866 241.354 24.6473 241.339 26.3111V44.2897H233.311V27.763C233.311 25.3504 232.934 23.5502 232.18 22.3625C231.426 21.1749 230.088 20.5818 228.167 20.5832C225.979 20.5832 224.4 21.233 223.427 22.5327C222.455 23.8324 221.965 25.9715 221.958 28.95V44.2703H213.93V15.0535H221.551Z" fill="white"/>
<path d="M264.912 29.975C264.541 30.2957 264.108 30.5362 263.639 30.6815C263.103 30.8614 262.555 31.0054 262 31.1123C261.416 31.2265 260.802 31.3278 260.162 31.3945C259.523 31.4613 258.87 31.5647 258.241 31.6789C257.638 31.7905 257.043 31.9416 256.459 32.1313C255.912 32.2996 255.396 32.5573 254.932 32.8938C254.498 33.216 254.141 33.6311 253.887 34.1088C253.603 34.6882 253.467 35.3292 253.491 35.9743C253.47 36.6011 253.606 37.2231 253.887 37.7838C254.136 38.2596 254.508 38.6598 254.964 38.9427C255.45 39.2381 255.986 39.4398 256.546 39.5373C257.162 39.6512 257.787 39.7081 258.413 39.7074C259.993 39.7074 261.214 39.4432 262.075 38.9147C262.869 38.4601 263.532 37.8078 263.999 37.0212C264.396 36.3335 264.656 35.5746 264.761 34.7873C264.845 34.1875 264.892 33.5833 264.904 32.9779L264.912 29.975ZM246.367 24.0402C246.481 22.1561 246.952 20.5914 247.78 19.3463C248.591 18.1176 249.673 17.0911 250.943 16.3456C252.284 15.5696 253.746 15.0248 255.268 14.7343C256.86 14.4156 258.479 14.2547 260.102 14.2539C261.596 14.2563 263.088 14.3607 264.568 14.5663C265.999 14.7503 267.392 15.1604 268.695 15.7812C269.904 16.3556 270.953 17.2199 271.747 18.2973C272.539 19.37 272.934 20.7925 272.934 22.5646V37.773C272.931 39.0395 273.007 40.305 273.161 41.5622C273.304 42.7685 273.568 43.6725 273.953 44.2743H265.813C265.659 43.8212 265.536 43.3585 265.444 42.8891C265.348 42.4133 265.282 41.932 265.246 41.448C264.001 42.7448 262.443 43.6989 260.722 44.2183C258.999 44.7447 257.208 45.0118 255.406 45.011C254.088 45.0211 252.775 44.8493 251.505 44.5004C250.355 44.1901 249.278 43.6516 248.34 42.9171C247.429 42.1935 246.703 41.264 246.221 40.2051C245.684 38.9761 245.423 37.6445 245.456 36.3039C245.456 34.6452 245.748 33.2809 246.333 32.211C246.873 31.1869 247.648 30.3054 248.594 29.6389C249.559 28.9791 250.63 28.4916 251.761 28.1978C252.943 27.8782 254.141 27.6229 255.35 27.433C256.556 27.2449 257.744 27.0941 258.913 26.9807C259.96 26.8882 260.999 26.7183 262.021 26.4723C262.803 26.3048 263.539 25.9672 264.176 25.4835C264.701 25.0527 264.946 24.4208 264.91 23.5879C264.91 22.7262 264.766 22.039 264.479 21.5263C264.215 21.036 263.825 20.6254 263.348 20.3372C262.844 20.0441 262.287 19.8524 261.709 19.7729C261.044 19.6769 260.373 19.6301 259.701 19.6328C258.122 19.6328 256.878 19.9718 255.97 20.6496C255.063 21.3274 254.536 22.4577 254.389 24.0402H246.367Z" fill="white"/>
<path d="M285.09 37.0258C285.433 37.6304 285.906 38.1514 286.475 38.5509C287.067 38.9595 287.728 39.2566 288.426 39.4276C289.175 39.6182 289.944 39.7131 290.716 39.7098C291.315 39.7066 291.911 39.6409 292.496 39.5138C293.089 39.3911 293.661 39.1813 294.193 38.8912C294.696 38.6142 295.13 38.2277 295.464 37.7603C295.82 37.2361 295.998 36.6117 295.972 35.9788C295.972 34.7725 295.172 33.8685 293.571 33.2667C291.969 32.665 289.736 32.0619 286.871 31.4573C285.701 31.1916 284.56 30.8807 283.45 30.5245C282.399 30.1955 281.399 29.719 280.482 29.1092C279.629 28.5398 278.914 27.7868 278.39 26.9055C277.863 26.0209 277.6 24.9373 277.6 23.6549C277.6 21.7707 277.967 20.2255 278.703 19.0191C279.414 17.8351 280.416 16.852 281.613 16.1627C282.877 15.4453 284.253 14.9485 285.684 14.6936C287.213 14.4069 288.765 14.2627 290.32 14.2628C291.867 14.2593 293.411 14.4108 294.928 14.7151C296.336 14.9856 297.685 15.5026 298.913 16.2424C300.086 16.9629 301.081 17.9385 301.825 19.0967C302.596 20.2829 303.058 21.7815 303.21 23.5924H295.578C295.465 22.0457 294.88 20.9995 293.825 20.4538C292.665 19.884 291.385 19.6025 290.094 19.6331C289.602 19.636 289.111 19.6648 288.622 19.7192C288.126 19.7675 287.64 19.891 287.181 20.0854C286.755 20.2705 286.378 20.5513 286.078 20.9062C285.761 21.3172 285.601 21.8285 285.628 22.3473C285.619 22.6804 285.685 23.0112 285.822 23.315C285.959 23.6187 286.163 23.8874 286.419 24.1008C287.029 24.5977 287.73 24.9715 288.482 25.2016C289.437 25.5138 290.41 25.7692 291.395 25.9663C292.486 26.1932 293.598 26.4381 294.73 26.7009C295.886 26.9617 297.027 27.2824 298.15 27.6616C299.209 28.0144 300.209 28.5226 301.119 29.1695C301.975 29.7818 302.689 30.5726 303.21 31.4874C303.737 32.4108 304.001 33.5511 304.001 34.9082C304.001 36.8297 303.615 38.4403 302.842 39.74C302.1 41.0106 301.066 42.0864 299.826 42.8786C298.52 43.6959 297.073 44.2614 295.559 44.5459C293.948 44.8673 292.309 45.0282 290.667 45.0263C288.996 45.0296 287.329 44.8592 285.693 44.5179C284.162 44.2147 282.697 43.6406 281.367 42.8226C280.103 42.0293 279.039 40.9553 278.257 39.684C277.447 38.3915 277.004 36.7615 276.93 34.794H284.549C284.527 35.573 284.712 36.3438 285.085 37.0279" fill="white"/>
<path d="M304 0H0.0742188V7.59772H304V0Z" fill="white"/>
<path d="M304 51.6758H0.0742188V59.2735H304V51.6758Z" fill="white"/>
</svg>
