<svg id="Layer_1" data-name="Layer 1" xmlns="http://www.w3.org/2000/svg" viewBox="0 0 1920 1080"><path d="M344.69,541.58a16.84,16.84,0,0,1-5.91,3.28,60.73,60.73,0,0,1-7.61,2q-4.08.79-8.53,1.32c-3,.35-5.95.78-8.92,1.31a68.59,68.59,0,0,0-8.27,2.1,24.64,24.64,0,0,0-7.09,3.54,16.86,16.86,0,0,0-4.85,5.64,18.14,18.14,0,0,0-1.84,8.67,17.43,17.43,0,0,0,1.84,8.39,14,14,0,0,0,5,5.38,21,21,0,0,0,7.35,2.76,47.36,47.36,0,0,0,8.66.79q11,0,17.06-3.68a24.53,24.53,0,0,0,8.93-8.79A28.24,28.24,0,0,0,344,563.88a72.9,72.9,0,0,0,.66-8.39ZM258.6,514q.79-13.12,6.56-21.78a44.76,44.76,0,0,1,14.7-13.92,64.33,64.33,0,0,1,20.08-7.48,114.61,114.61,0,0,1,22.44-2.23,152.47,152.47,0,0,1,20.73,1.45,63.3,63.3,0,0,1,19.16,5.64,37.71,37.71,0,0,1,14.17,11.68q5.52,7.49,5.51,19.81v70.6A141.8,141.8,0,0,0,383,595.38q1,8.4,3.68,12.6h-37.8a52.12,52.12,0,0,1-1.7-6.44,54.13,54.13,0,0,1-.92-6.69,48.43,48.43,0,0,1-21,12.86,84.26,84.26,0,0,1-24.67,3.68,66.74,66.74,0,0,1-18.1-2.36,41.48,41.48,0,0,1-14.7-7.35,34.23,34.23,0,0,1-9.85-12.6A42.64,42.64,0,0,1,254.4,571q0-11.55,4.07-19A34.07,34.07,0,0,1,269,540a47.05,47.05,0,0,1,14.7-6.69,154.79,154.79,0,0,1,16.66-3.54q8.4-1.32,16.54-2.1a100.08,100.08,0,0,0,14.43-2.37,25.18,25.18,0,0,0,10-4.59q3.68-3,3.42-8.79c0-4-.66-7.22-2-9.58a14.58,14.58,0,0,0-5.25-5.51,20.62,20.62,0,0,0-7.61-2.63,63.43,63.43,0,0,0-9.32-.65q-11,0-17.32,4.72T295.87,514Z"/><path d="M443.29,472.29v18.37h.52a53.1,53.1,0,0,1,17.72-16.27,47.93,47.93,0,0,1,23.75-5.78,54.71,54.71,0,0,1,23.49,5q10.62,5,16.14,17.58a57.82,57.82,0,0,1,16.4-15.74q10.37-6.82,24.54-6.83a72.31,72.31,0,0,1,19.94,2.63,40.09,40.09,0,0,1,15.75,8.4,38.54,38.54,0,0,1,10.24,15.09q3.68,9.31,3.67,22.44V608H578.19V531.08q0-6.83-.53-12.86a27.21,27.21,0,0,0-2.89-10.5,17.49,17.49,0,0,0-6.95-7.09Q563.21,498,555.35,498t-12.73,3A21.89,21.89,0,0,0,535,508.9a31.43,31.43,0,0,0-3.67,11,83.61,83.61,0,0,0-.92,12.47V608H493.15v-76.1q0-6-.26-12A33.77,33.77,0,0,0,490.66,509a16.77,16.77,0,0,0-6.57-8q-4.59-3-13.51-3a27.85,27.85,0,0,0-7,1.18,23.23,23.23,0,0,0-8.39,4.46,26.08,26.08,0,0,0-7,9.45q-2.89,6.17-2.89,16.14V608H408.12V472.29Z"/><path d="M723.08,504.05q-6.69-7.35-20.34-7.35-8.93,0-14.83,3a28.19,28.19,0,0,0-9.45,7.48,27.54,27.54,0,0,0-5,9.44,42.65,42.65,0,0,0-1.7,8.92H732.4q-2.62-14.16-9.32-21.51M681,575.43q8.38,8.15,24.14,8.14,11.28,0,19.42-5.65t10-11.94h32.8q-7.86,24.42-24.14,34.91t-39.37,10.5a77.5,77.5,0,0,1-28.87-5.12,59.85,59.85,0,0,1-21.78-14.57,65.34,65.34,0,0,1-13.78-22.57,82.51,82.51,0,0,1-4.86-28.87,79,79,0,0,1,5-28.34,65.57,65.57,0,0,1,36.09-37.79,70.12,70.12,0,0,1,28.21-5.51q17.33,0,30.18,6.69a60.18,60.18,0,0,1,21.13,18A73.85,73.85,0,0,1,767,519a95.84,95.84,0,0,1,2.62,30.19H671.77q.79,18.1,9.19,26.24"/><path d="M824.09,472.29v25.19h.53a45.75,45.75,0,0,1,7.09-11.68,46.5,46.5,0,0,1,10.23-9.18,50.7,50.7,0,0,1,12.33-5.91,44.56,44.56,0,0,1,13.65-2.1,29,29,0,0,1,8.14,1.32v34.64q-2.62-.52-6.3-.92a67.18,67.18,0,0,0-7.09-.39q-10.23,0-17.32,3.41A30,30,0,0,0,833.94,516a37.18,37.18,0,0,0-6.17,13.78,74.58,74.58,0,0,0-1.84,17.05V608H788.66V472.29Z"/><rect x="890.15" y="472.29" width="37.27" height="135.69"/><path d="M1016.68,496.7q-8.92,0-15,4.06a32.34,32.34,0,0,0-9.84,10.5,45.63,45.63,0,0,0-5.39,14.18,76.76,76.76,0,0,0-1.57,15.35,73.65,73.65,0,0,0,1.57,15,46.65,46.65,0,0,0,5.12,13.78,29.48,29.48,0,0,0,9.58,10.1,26.4,26.4,0,0,0,14.7,3.94q13.38,0,20.6-7.48t9.06-20.08h36q-3.68,27-21,41.2t-44.36,14.18a74.3,74.3,0,0,1-27.95-5.12A61.75,61.75,0,0,1,966.55,592a65,65,0,0,1-13.91-21.91,75.84,75.84,0,0,1-5-27.95,90.42,90.42,0,0,1,4.59-29.26,66,66,0,0,1,13.52-23.36,61.79,61.79,0,0,1,21.79-15.35q12.84-5.52,29.39-5.52a85.14,85.14,0,0,1,23.23,3.15,62.16,62.16,0,0,1,19.94,9.58,51.33,51.33,0,0,1,14.3,16q5.52,9.58,6.31,22.7h-36.49q-3.68-23.35-27.55-23.35"/><path d="M1184.2,541.58a16.84,16.84,0,0,1-5.91,3.28,60.73,60.73,0,0,1-7.61,2q-4.08.79-8.53,1.32c-3,.35-6,.78-8.93,1.31a68.91,68.91,0,0,0-8.26,2.1,24.64,24.64,0,0,0-7.09,3.54,16.86,16.86,0,0,0-4.85,5.64,18.14,18.14,0,0,0-1.84,8.67,17.43,17.43,0,0,0,1.84,8.39,14,14,0,0,0,5,5.38,21,21,0,0,0,7.35,2.76,47.28,47.28,0,0,0,8.66.79q11,0,17.06-3.68a24.53,24.53,0,0,0,8.93-8.79,28.24,28.24,0,0,0,3.54-10.37,70.69,70.69,0,0,0,.66-8.39ZM1098.11,514q.8-13.12,6.56-21.78a44.76,44.76,0,0,1,14.7-13.92,64.24,64.24,0,0,1,20.08-7.48,114.61,114.61,0,0,1,22.44-2.23,152.47,152.47,0,0,1,20.73,1.45,63.3,63.3,0,0,1,19.16,5.64A37.64,37.64,0,0,1,1216,487.38q5.52,7.49,5.51,19.81v70.6a139.85,139.85,0,0,0,1.06,17.59q1,8.4,3.67,12.6H1188.4a50.44,50.44,0,0,1-1.71-6.44,54.13,54.13,0,0,1-.92-6.69,48.45,48.45,0,0,1-21,12.86,84.38,84.38,0,0,1-24.68,3.68A66.74,66.74,0,0,1,1122,609a41.56,41.56,0,0,1-14.7-7.35,34.1,34.1,0,0,1-9.84-12.6,42.49,42.49,0,0,1-3.55-18.11q0-11.55,4.07-19a34.07,34.07,0,0,1,10.5-11.94,47.05,47.05,0,0,1,14.7-6.69,154.79,154.79,0,0,1,16.66-3.54q8.4-1.32,16.54-2.1a100.08,100.08,0,0,0,14.43-2.37,25.18,25.18,0,0,0,10-4.59q3.67-3,3.42-8.79c0-4-.66-7.22-2-9.58a14.51,14.51,0,0,0-5.25-5.51,20.62,20.62,0,0,0-7.61-2.63,63.43,63.43,0,0,0-9.32-.65q-11,0-17.32,4.72T1135.38,514Z"/><path d="M1282.85,472.29v18.89h.78A42.82,42.82,0,0,1,1302,474a53.2,53.2,0,0,1,23.09-5.38q15,0,24.54,4.07A36.42,36.42,0,0,1,1364.73,484a43.76,43.76,0,0,1,7.75,17.58,110,110,0,0,1,2.23,23V608h-37.27V531.34q0-16.8-5.25-25.06T1313.55,498q-15.21,0-22,9.05t-6.82,29.79V608h-37.27V472.29Z"/><path d="M1484.15,541.58a16.84,16.84,0,0,1-5.91,3.28,60.73,60.73,0,0,1-7.61,2q-4.08.79-8.53,1.32c-3,.35-5.95.78-8.93,1.31a68.91,68.91,0,0,0-8.26,2.1,24.64,24.64,0,0,0-7.09,3.54,16.86,16.86,0,0,0-4.85,5.64,18.14,18.14,0,0,0-1.84,8.67,17.43,17.43,0,0,0,1.84,8.39,14,14,0,0,0,5,5.38,21,21,0,0,0,7.35,2.76,47.28,47.28,0,0,0,8.66.79q11,0,17.06-3.68a24.5,24.5,0,0,0,8.92-8.79,28.08,28.08,0,0,0,3.55-10.37,72.9,72.9,0,0,0,.66-8.39ZM1398.06,514q.78-13.12,6.56-21.78a44.76,44.76,0,0,1,14.7-13.92,64.28,64.28,0,0,1,20.07-7.48,114.78,114.78,0,0,1,22.45-2.23,152.47,152.47,0,0,1,20.73,1.45,63.47,63.47,0,0,1,19.16,5.64,37.79,37.79,0,0,1,14.17,11.68q5.5,7.49,5.51,19.81v70.6a141.8,141.8,0,0,0,1,17.59q1.05,8.4,3.67,12.6h-37.78a50.44,50.44,0,0,1-1.71-6.44,54.13,54.13,0,0,1-.92-6.69,48.43,48.43,0,0,1-21,12.86,84.26,84.26,0,0,1-24.67,3.68,66.87,66.87,0,0,1-18.11-2.36,41.6,41.6,0,0,1-14.69-7.35,34.23,34.23,0,0,1-9.85-12.6,42.64,42.64,0,0,1-3.54-18.11q0-11.55,4.07-19a34.07,34.07,0,0,1,10.5-11.94,47.1,47.1,0,0,1,14.69-6.69,155,155,0,0,1,16.67-3.54q8.4-1.32,16.53-2.1a100,100,0,0,0,14.44-2.37,25.18,25.18,0,0,0,10-4.59q3.68-3,3.42-8.79c0-4-.66-7.22-2-9.58a14.48,14.48,0,0,0-5.24-5.51,20.62,20.62,0,0,0-7.61-2.63,63.43,63.43,0,0,0-9.32-.65q-11,0-17.32,4.72T1435.33,514Z"/><path d="M1577.81,574.25a21.71,21.71,0,0,0,6.43,7.09,27.51,27.51,0,0,0,9.06,4.06,42.33,42.33,0,0,0,10.62,1.32,40,40,0,0,0,8.27-.92,28,28,0,0,0,7.87-2.89,17.84,17.84,0,0,0,5.91-5.25,13.8,13.8,0,0,0,2.36-8.27q0-8.39-11.15-12.59t-31.1-8.4q-8.14-1.83-15.88-4.33a54.22,54.22,0,0,1-13.78-6.56,31.76,31.76,0,0,1-9.71-10.24q-3.68-6.16-3.68-15.09,0-13.12,5.12-21.52a37.72,37.72,0,0,1,13.52-13.25,59.16,59.16,0,0,1,18.9-6.83,116.64,116.64,0,0,1,21.52-2,107.54,107.54,0,0,1,21.39,2.1,57,57,0,0,1,18.5,7.09,42.49,42.49,0,0,1,13.51,13.25q5.38,8.26,6.44,20.87h-35.44q-.78-10.76-8.13-14.57a37.3,37.3,0,0,0-17.32-3.8,65,65,0,0,0-6.83.39,22.51,22.51,0,0,0-6.69,1.71,13.77,13.77,0,0,0-5.12,3.8,10.08,10.08,0,0,0-2.1,6.69,10.22,10.22,0,0,0,3.68,8.14,28.16,28.16,0,0,0,9.58,5.12,120,120,0,0,0,13.51,3.54q7.62,1.57,15.48,3.41a161.86,161.86,0,0,1,15.89,4.46,52.36,52.36,0,0,1,13.77,7,33.82,33.82,0,0,1,9.72,10.76q3.66,6.44,3.67,15.88,0,13.38-5.38,22.44a43,43,0,0,1-14,14.56,57.55,57.55,0,0,1-19.82,7.75,116,116,0,0,1-22.7,2.23,112,112,0,0,1-23.09-2.37,60.89,60.89,0,0,1-20.08-7.87,44.88,44.88,0,0,1-14.44-14.57q-5.64-9-6.16-22.7h35.43a20.47,20.47,0,0,0,2.49,10.37"/><rect x="254.72" y="402.42" width="1410.88" height="35.27"/><rect x="254.72" y="642.31" width="1410.88" height="35.27"/></svg>