<svg id="Layer_1" data-name="Layer 1" xmlns="http://www.w3.org/2000/svg" viewBox="0 0 1920 1080"><defs><style>.cls-1{fill:#f80032;}.cls-2{fill:#fff;}</style></defs><rect class="cls-1" x="-45.37" y="-48.61" width="1998.14" height="1192.61"/><path class="cls-2" d="M338.39,549.27a16.53,16.53,0,0,1-5.91,3.28,59,59,0,0,1-7.61,2c-2.71.53-5.56,1-8.53,1.31s-5.95.79-8.92,1.32a65.47,65.47,0,0,0-8.27,2.1,24.27,24.27,0,0,0-7.09,3.54,16.86,16.86,0,0,0-4.85,5.64,18.1,18.1,0,0,0-1.84,8.66,17.45,17.45,0,0,0,1.84,8.4,14,14,0,0,0,5,5.38,21.13,21.13,0,0,0,7.35,2.76,47.2,47.2,0,0,0,8.66.79q11,0,17.05-3.68a24.61,24.61,0,0,0,8.93-8.79,28.24,28.24,0,0,0,3.54-10.37,70.83,70.83,0,0,0,.66-8.4ZM252.3,521.72q.8-13.12,6.56-21.79A44.73,44.73,0,0,1,273.56,486a64.09,64.09,0,0,1,20.08-7.48,114.61,114.61,0,0,1,22.44-2.23,152.47,152.47,0,0,1,20.73,1.45A63.3,63.3,0,0,1,356,483.4a37.64,37.64,0,0,1,14.17,11.68q5.52,7.47,5.51,19.81v70.6a139.85,139.85,0,0,0,1.06,17.59q1,8.4,3.67,12.59H342.59a52,52,0,0,1-1.71-6.43,54.13,54.13,0,0,1-.92-6.69,48.55,48.55,0,0,1-21,12.86,84.31,84.31,0,0,1-24.67,3.68,66.42,66.42,0,0,1-18.11-2.37,41.32,41.32,0,0,1-14.7-7.35,34.15,34.15,0,0,1-9.84-12.59,42.49,42.49,0,0,1-3.55-18.11q0-11.55,4.07-19a34,34,0,0,1,10.5-11.94,46.93,46.93,0,0,1,14.7-6.69A157.29,157.29,0,0,1,294,537.46q8.4-1.31,16.54-2.1A98.79,98.79,0,0,0,325,533a25.18,25.18,0,0,0,10-4.59q3.67-3,3.42-8.8,0-6-2-9.57a14.46,14.46,0,0,0-5.25-5.52,20.79,20.79,0,0,0-7.61-2.62,63.43,63.43,0,0,0-9.32-.65q-11,0-17.32,4.72t-7.35,15.75Z"/><path class="cls-2" d="M437,480v18.37h.52a53.13,53.13,0,0,1,17.72-16.28A48.06,48.06,0,0,1,479,476.31a54.71,54.71,0,0,1,23.49,5q10.62,5,16.14,17.58A58,58,0,0,1,535,483.13q10.37-6.81,24.54-6.82a72.43,72.43,0,0,1,20,2.63,40.34,40.34,0,0,1,15.75,8.39,38.78,38.78,0,0,1,10.23,15.09q3.67,9.33,3.67,22.45v90.8H571.89v-76.9q0-6.81-.53-12.86a27.16,27.16,0,0,0-2.89-10.49,17.43,17.43,0,0,0-7-7.09q-4.59-2.62-12.47-2.62t-12.73,3a22,22,0,0,0-7.61,7.88,31.64,31.64,0,0,0-3.67,11,83.51,83.51,0,0,0-.92,12.47v75.58H486.85V539.56q0-6-.26-11.94a33.77,33.77,0,0,0-2.23-10.89,16.82,16.82,0,0,0-6.56-8q-4.6-3-13.52-3a27.85,27.85,0,0,0-7,1.18,23.08,23.08,0,0,0-8.39,4.46,26.08,26.08,0,0,0-7,9.45q-2.88,6.16-2.88,16.14v78.73H401.82V480Z"/><path class="cls-2" d="M716.78,511.74q-6.69-7.33-20.34-7.35-8.93,0-14.83,3a28.4,28.4,0,0,0-9.44,7.48,27.33,27.33,0,0,0-5,9.45,42.09,42.09,0,0,0-1.71,8.92H726.1q-2.62-14.16-9.32-21.52m-42.12,71.39q8.4,8.14,24.14,8.14,11.3,0,19.42-5.65t10-11.94H761q-7.86,24.41-24.14,34.91t-39.37,10.49A77.54,77.54,0,0,1,668.62,614a60,60,0,0,1-21.78-14.57,65.59,65.59,0,0,1-13.78-22.57A82.55,82.55,0,0,1,628.21,548a79.24,79.24,0,0,1,5-28.34,65.55,65.55,0,0,1,36.09-37.8,70.32,70.32,0,0,1,28.21-5.51q17.32,0,30.18,6.69a60.39,60.39,0,0,1,21.13,18,74,74,0,0,1,11.94,25.72,96.13,96.13,0,0,1,2.63,30.19h-97.9q.79,18.11,9.19,26.24"/><path class="cls-2" d="M817.8,480v25.19h.52a45.75,45.75,0,0,1,7.09-11.68,46.5,46.5,0,0,1,10.23-9.18A49.87,49.87,0,0,1,848,478.41a44.47,44.47,0,0,1,13.65-2.1,29.22,29.22,0,0,1,8.13,1.31v34.65q-2.62-.52-6.3-.92a67.14,67.14,0,0,0-7.08-.39q-10.25,0-17.33,3.41a29.89,29.89,0,0,0-11.41,9.32,37.14,37.14,0,0,0-6.17,13.77,75.3,75.3,0,0,0-1.84,17.06v61.15H782.36V480Z"/><rect class="cls-2" x="883.85" y="479.99" width="37.27" height="135.69"/><path class="cls-2" d="M1010.38,504.39q-8.93,0-15,4.07a32.24,32.24,0,0,0-9.84,10.5,45.31,45.31,0,0,0-5.38,14.17,77,77,0,0,0-1.58,15.36,73.58,73.58,0,0,0,1.58,15,46.16,46.16,0,0,0,5.11,13.78,29.51,29.51,0,0,0,9.58,10.11,26.39,26.39,0,0,0,14.7,3.93q13.39,0,20.6-7.48t9.06-20.07h36q-3.67,27-21,41.2t-44.36,14.17a74.3,74.3,0,0,1-28-5.11,62,62,0,0,1-21.65-14.31,65,65,0,0,1-13.91-21.91,76.08,76.08,0,0,1-5-28A90.52,90.52,0,0,1,946,520.53a65.61,65.61,0,0,1,13.52-23.35,61.69,61.69,0,0,1,21.78-15.36q12.86-5.51,29.39-5.51a85.09,85.09,0,0,1,23.23,3.15,62.16,62.16,0,0,1,19.94,9.58,51.26,51.26,0,0,1,14.31,16q5.51,9.58,6.3,22.7h-36.48q-3.69-23.36-27.56-23.36"/><path class="cls-2" d="M1177.9,549.27a16.45,16.45,0,0,1-5.91,3.28,58.61,58.61,0,0,1-7.61,2c-2.71.53-5.56,1-8.53,1.31s-5.95.79-8.92,1.32a65.47,65.47,0,0,0-8.27,2.1,24,24,0,0,0-7.08,3.54,16.78,16.78,0,0,0-4.86,5.64,18.1,18.1,0,0,0-1.84,8.66,17.45,17.45,0,0,0,1.84,8.4,14,14,0,0,0,5,5.38,21.15,21.15,0,0,0,7.34,2.76,47.39,47.39,0,0,0,8.67.79q11,0,17.06-3.68a24.65,24.65,0,0,0,8.92-8.79,28.24,28.24,0,0,0,3.54-10.37,70.83,70.83,0,0,0,.66-8.4Zm-86.09-27.55q.8-13.12,6.57-21.79A44.6,44.6,0,0,1,1113.07,486a64.09,64.09,0,0,1,20.08-7.48,114.76,114.76,0,0,1,22.44-2.23,152.47,152.47,0,0,1,20.73,1.45,63.3,63.3,0,0,1,19.16,5.64,37.64,37.64,0,0,1,14.17,11.68q5.52,7.47,5.52,19.81v70.6a139.89,139.89,0,0,0,1,17.59q1,8.4,3.67,12.59H1182.1a52,52,0,0,1-1.71-6.43,54.12,54.12,0,0,1-.91-6.69,48.64,48.64,0,0,1-21,12.86,84.26,84.26,0,0,1-24.67,3.68,66.37,66.37,0,0,1-18.11-2.37,41.32,41.32,0,0,1-14.7-7.35,34.15,34.15,0,0,1-9.84-12.59,42.64,42.64,0,0,1-3.54-18.11q0-11.55,4.06-19a34,34,0,0,1,10.5-11.94,47,47,0,0,1,14.7-6.69,157.29,157.29,0,0,1,16.66-3.55q8.4-1.31,16.54-2.1a98.57,98.57,0,0,0,14.43-2.36,25.29,25.29,0,0,0,10-4.59q3.66-3,3.41-8.8,0-6-2-9.57a14.46,14.46,0,0,0-5.25-5.52,20.73,20.73,0,0,0-7.61-2.62,63.33,63.33,0,0,0-9.32-.65q-11,0-17.32,4.72t-7.35,15.75Z"/><path class="cls-2" d="M1276.55,480v18.89h.79a42.74,42.74,0,0,1,18.37-17.19,53.21,53.21,0,0,1,23.1-5.38q15,0,24.53,4.07a36.5,36.5,0,0,1,15.1,11.28,43.85,43.85,0,0,1,7.74,17.59,109.85,109.85,0,0,1,2.23,23v83.46h-37.27V539q0-16.8-5.25-25.07t-18.63-8.26q-15.23,0-22,9.05t-6.82,29.79v71.12h-37.27V480Z"/><path class="cls-2" d="M1477.85,549.27a16.53,16.53,0,0,1-5.91,3.28,59,59,0,0,1-7.61,2c-2.71.53-5.56,1-8.53,1.31s-6,.79-8.92,1.32a65,65,0,0,0-8.27,2.1,24.15,24.15,0,0,0-7.09,3.54,16.86,16.86,0,0,0-4.85,5.64,18.1,18.1,0,0,0-1.84,8.66,17.45,17.45,0,0,0,1.84,8.4,13.92,13.92,0,0,0,5,5.38,21.07,21.07,0,0,0,7.34,2.76,47.39,47.39,0,0,0,8.67.79q11,0,17-3.68a24.61,24.61,0,0,0,8.93-8.79,28.24,28.24,0,0,0,3.54-10.37,70.83,70.83,0,0,0,.66-8.4Zm-86.09-27.55q.79-13.12,6.56-21.79A44.73,44.73,0,0,1,1413,486a64.09,64.09,0,0,1,20.08-7.48,114.61,114.61,0,0,1,22.44-2.23,152.47,152.47,0,0,1,20.73,1.45,63.3,63.3,0,0,1,19.16,5.64,37.71,37.71,0,0,1,14.17,11.68q5.51,7.47,5.51,19.81v70.6a141.8,141.8,0,0,0,1.05,17.59q1,8.4,3.68,12.59h-37.79a50.29,50.29,0,0,1-1.71-6.43,54.13,54.13,0,0,1-.92-6.69,48.55,48.55,0,0,1-21,12.86,84.33,84.33,0,0,1-24.68,3.68,66.47,66.47,0,0,1-18.11-2.37,41.27,41.27,0,0,1-14.69-7.35,34.15,34.15,0,0,1-9.84-12.59,42.64,42.64,0,0,1-3.55-18.11q0-11.55,4.07-19a34,34,0,0,1,10.5-11.94,46.93,46.93,0,0,1,14.7-6.69,157.29,157.29,0,0,1,16.66-3.55q8.4-1.31,16.54-2.1a98.79,98.79,0,0,0,14.43-2.36,25.29,25.29,0,0,0,10-4.59q3.66-3,3.41-8.8,0-6-2-9.57a14.46,14.46,0,0,0-5.25-5.52,20.79,20.79,0,0,0-7.61-2.62,63.43,63.43,0,0,0-9.32-.65q-11,0-17.32,4.72T1429,521.72Z"/><path class="cls-2" d="M1571.51,582a21.79,21.79,0,0,0,6.43,7.08,27.42,27.42,0,0,0,9.06,4.07,42.35,42.35,0,0,0,10.63,1.31,39.91,39.91,0,0,0,8.26-.91,28.54,28.54,0,0,0,7.88-2.89,17.8,17.8,0,0,0,5.9-5.25,13.76,13.76,0,0,0,2.36-8.27q0-8.4-11.15-12.59t-31.1-8.4q-8.15-1.85-15.88-4.33a54.06,54.06,0,0,1-13.78-6.57,31.93,31.93,0,0,1-9.71-10.23q-3.67-6.16-3.67-15.09,0-13.12,5.12-21.52a37.72,37.72,0,0,1,13.51-13.26,59.38,59.38,0,0,1,18.9-6.82,116.72,116.72,0,0,1,21.52-2,107.54,107.54,0,0,1,21.39,2.1,56.51,56.51,0,0,1,18.5,7.09,42.52,42.52,0,0,1,13.52,13.25q5.37,8.26,6.43,20.87H1620.2q-.79-10.77-8.14-14.57a37.27,37.27,0,0,0-17.32-3.81,65.2,65.2,0,0,0-6.83.4,22.81,22.81,0,0,0-6.69,1.7,14,14,0,0,0-5.12,3.81,10.07,10.07,0,0,0-2.09,6.69,10.22,10.22,0,0,0,3.67,8.14,28.25,28.25,0,0,0,9.58,5.11,118,118,0,0,0,13.52,3.55q7.6,1.58,15.48,3.41a159,159,0,0,1,15.88,4.46,52.28,52.28,0,0,1,13.78,7,33.8,33.8,0,0,1,9.71,10.76q3.67,6.43,3.67,15.88,0,13.38-5.38,22.43a43.06,43.06,0,0,1-14,14.57,57.29,57.29,0,0,1-19.81,7.74,115.36,115.36,0,0,1-22.71,2.23,112,112,0,0,1-23.09-2.36,60.89,60.89,0,0,1-20.08-7.87,45.08,45.08,0,0,1-14.44-14.57q-5.64-9-6.16-22.7H1569a20.47,20.47,0,0,0,2.49,10.37"/><rect class="cls-2" x="248.42" y="410.12" width="1410.88" height="35.27"/><rect class="cls-2" x="248.42" y="650.01" width="1410.88" height="35.27"/></svg>