<svg id="Layer_1" data-name="Layer 1" xmlns="http://www.w3.org/2000/svg" viewBox="0 0 1920 1080"><defs><style>.cls-1{fill:#f80032;}.cls-2{fill:#fff;}</style></defs><rect class="cls-1" x="-45.37" y="-48.61" width="1998.14" height="1192.61"/><rect class="cls-2" x="754.16" y="112.16" width="411.67" height="109.67"/><rect class="cls-2" x="754.16" y="858.17" width="411.67" height="109.67"/><path class="cls-2" d="M1035.1,544.9a52.09,52.09,0,0,1-18.37,10.2,187.29,187.29,0,0,1-23.67,6.12q-12.66,2.46-26.53,4.09t-27.75,4.07a210,210,0,0,0-25.71,6.54,76.46,76.46,0,0,0-22,11,52.2,52.2,0,0,0-15.09,17.55q-5.72,10.62-5.71,26.94,0,15.51,5.71,26.11a43.45,43.45,0,0,0,15.51,16.73,65.3,65.3,0,0,0,22.85,8.57,145,145,0,0,0,26.93,2.46q34.28,0,53-11.43T1022,646.52a87.72,87.72,0,0,0,11-32.25,223.94,223.94,0,0,0,2-26.11ZM767.38,459.2q2.46-40.8,20.4-67.74a139.09,139.09,0,0,1,45.71-43.26q27.75-16.32,62.44-23.26A356.06,356.06,0,0,1,965.72,318a474.92,474.92,0,0,1,64.47,4.49A197.47,197.47,0,0,1,1089.78,340a117.47,117.47,0,0,1,44.07,36.32Q1151,399.63,1151,438V657.53a440.24,440.24,0,0,0,3.27,54.69q3.27,26.12,11.43,39.17H1048.16a161.24,161.24,0,0,1-5.32-20,170.82,170.82,0,0,1-2.85-20.81,151,151,0,0,1-65.29,40A262.44,262.44,0,0,1,898,762a207.63,207.63,0,0,1-56.32-7.35A129,129,0,0,1,796,731.81a106.36,106.36,0,0,1-30.61-39.18q-11-23.67-11-56.32,0-35.89,12.66-59.18T799.62,540a146.39,146.39,0,0,1,45.71-20.81,491,491,0,0,1,51.82-11q26.11-4.08,51.43-6.53a308,308,0,0,0,44.88-7.35q19.59-4.89,31-14.28t10.61-27.34q0-18.76-6.13-29.79a45,45,0,0,0-16.32-17.14A64.33,64.33,0,0,0,989,397.58a195.24,195.24,0,0,0-29-2q-34.28,0-53.86,14.69t-22.85,49Z"/></svg>