<svg width="32" height="24" viewBox="0 0 32 24" fill="none" xmlns="http://www.w3.org/2000/svg">
<path d="M23.0701 10H30.9341C31.0291 10 31.1222 10.0271 31.2023 10.0781C31.2825 10.1291 31.3465 10.2019 31.3867 10.2879C31.427 10.374 31.442 10.4697 31.4298 10.564C31.4177 10.6582 31.3789 10.747 31.3181 10.82L27.3861 15.54C27.3392 15.5963 27.2805 15.6415 27.2141 15.6726C27.1478 15.7037 27.0754 15.7198 27.0021 15.7198C26.9289 15.7198 26.8565 15.7037 26.7901 15.6726C26.7238 15.6415 26.6651 15.5963 26.6181 15.54L22.6861 10.82C22.6253 10.747 22.5866 10.6582 22.5744 10.564C22.5623 10.4697 22.5772 10.374 22.6175 10.2879C22.6578 10.2019 22.7218 10.1291 22.8019 10.0781C22.8821 10.0271 22.9751 10 23.0701 10ZM1.07013 14H8.93413C9.02913 14 9.12216 13.9729 9.20233 13.9219C9.28249 13.8709 9.34646 13.7981 9.38675 13.712C9.42704 13.626 9.44198 13.5303 9.42983 13.436C9.41768 13.3418 9.37893 13.253 9.31813 13.18L5.38613 8.46C5.3392 8.40373 5.28048 8.35846 5.21413 8.32739C5.14777 8.29632 5.07539 8.28022 5.00213 8.28022C4.92886 8.28022 4.85648 8.29632 4.79013 8.32739C4.72377 8.35846 4.66505 8.40373 4.61813 8.46L0.686125 13.18C0.625321 13.253 0.586573 13.3418 0.57442 13.436C0.562267 13.5303 0.577212 13.626 0.617504 13.712C0.657796 13.7981 0.721767 13.8709 0.801928 13.9219C0.882088 13.9729 0.975118 14 1.07013 14Z" fill="white"/>
<path fill-rule="evenodd" clip-rule="evenodd" d="M15.9997 1.99949C12.8957 1.99949 10.1197 3.41349 8.28571 5.63549C8.20381 5.74163 8.10141 5.83023 7.98459 5.89601C7.86777 5.96178 7.73891 6.0034 7.60569 6.01838C7.47246 6.03336 7.33758 6.02139 7.20907 5.9832C7.08056 5.94501 6.96104 5.88136 6.85762 5.79605C6.7542 5.71074 6.66899 5.6055 6.60706 5.4866C6.54513 5.36769 6.50773 5.23755 6.49711 5.10391C6.48648 4.97026 6.50283 4.83585 6.5452 4.70865C6.58756 4.58145 6.65507 4.46407 6.74371 4.36349C8.20809 2.59054 10.1509 1.27551 12.341 0.5748C14.5312 -0.125911 16.8765 -0.182811 19.0981 0.410867C21.3196 1.00454 23.3239 2.22382 24.8725 3.92366C26.4212 5.62351 27.449 7.73239 27.8337 9.99949H25.7997C25.3386 7.74076 24.1113 5.7107 22.3255 4.25288C20.5397 2.79506 18.305 1.99902 15.9997 1.99949ZM6.19971 13.9995C6.57833 15.8487 7.47241 17.5531 8.77866 18.9158C10.0849 20.2784 11.75 21.2437 13.5816 21.7001C15.4132 22.1564 17.3366 22.0853 19.1295 21.4949C20.9224 20.9045 22.5117 19.8189 23.7137 18.3635C23.7956 18.2573 23.898 18.1687 24.0148 18.103C24.1316 18.0372 24.2605 17.9956 24.3937 17.9806C24.527 17.9656 24.6618 17.9776 24.7903 18.0158C24.9189 18.054 25.0384 18.1176 25.1418 18.2029C25.2452 18.2882 25.3304 18.3935 25.3924 18.5124C25.4543 18.6313 25.4917 18.7614 25.5023 18.8951C25.5129 19.0287 25.4966 19.1631 25.4542 19.2903C25.4119 19.4175 25.3443 19.5349 25.2557 19.6355C23.7913 21.4084 21.8485 22.7235 19.6584 23.4242C17.4682 24.1249 15.1229 24.1818 12.9014 23.5881C10.6798 22.9944 8.67552 21.7752 7.12689 20.0753C5.57825 18.3755 4.55044 16.2666 4.16571 13.9995H6.19971Z" fill="white"/>
</svg>
