<svg width="32" height="28" viewBox="0 0 32 28" fill="none" xmlns="http://www.w3.org/2000/svg">
<path d="M8 18C8 17.4696 8.21071 16.9609 8.58579 16.5858C8.96086 16.2107 9.46957 16 10 16C10.5304 16 11.0391 16.2107 11.4142 16.5858C11.7893 16.9609 12 17.4696 12 18V22C12 22.5304 11.7893 23.0391 11.4142 23.4142C11.0391 23.7893 10.5304 24 10 24C9.46957 24 8.96086 23.7893 8.58579 23.4142C8.21071 23.0391 8 22.5304 8 22V18ZM14 18C14 17.4696 14.2107 16.9609 14.5858 16.5858C14.9609 16.2107 15.4696 16 16 16C16.5304 16 17.0391 16.2107 17.4142 16.5858C17.7893 16.9609 18 17.4696 18 18V22C18 22.5304 17.7893 23.0391 17.4142 23.4142C17.0391 23.7893 16.5304 24 16 24C15.4696 24 14.9609 23.7893 14.5858 23.4142C14.2107 23.0391 14 22.5304 14 22V18ZM20 18C20 17.4696 20.2107 16.9609 20.5858 16.5858C20.9609 16.2107 21.4696 16 22 16C22.5304 16 23.0391 16.2107 23.4142 16.5858C23.7893 16.9609 24 17.4696 24 18V22C24 22.5304 23.7893 23.0391 23.4142 23.4142C23.0391 23.7893 22.5304 24 22 24C21.4696 24 20.9609 23.7893 20.5858 23.4142C20.2107 23.0391 20 22.5304 20 22V18Z" fill="white"/>
<path d="M11.514 0.142247C11.6267 0.209729 11.725 0.298752 11.8033 0.404231C11.8815 0.509709 11.9383 0.629576 11.9702 0.756984C12.0022 0.884393 12.0087 1.01685 11.9894 1.14678C11.9702 1.27671 11.9255 1.40158 11.858 1.51425L6.766 10.0002H25.234L20.14 1.51425C20.0037 1.28669 19.9633 1.0143 20.0278 0.757002C20.0924 0.499702 20.2564 0.278568 20.484 0.142247C20.7116 0.00592561 20.9839 -0.0344161 21.2412 0.0300965C21.4985 0.094609 21.7197 0.258691 21.856 0.486247L27.566 10.0002H31C31.2652 10.0002 31.5196 10.1056 31.7071 10.2931C31.8946 10.4807 32 10.735 32 11.0002V13.0002C32 13.2655 31.8946 13.5198 31.7071 13.7074C31.5196 13.8949 31.2652 14.0002 31 14.0002H29.754L26.066 26.9122C25.9764 27.226 25.7869 27.5019 25.5263 27.6983C25.2658 27.8946 24.9483 28.0006 24.622 28.0002H7.38C7.05373 28.0006 6.73624 27.8946 6.47566 27.6983C6.21508 27.5019 6.02561 27.226 5.936 26.9122L2.246 14.0002H1C0.734784 14.0002 0.48043 13.8949 0.292893 13.7074C0.105357 13.5198 0 13.2655 0 13.0002V11.0002C0 10.735 0.105357 10.4807 0.292893 10.2931C0.48043 10.1056 0.734784 10.0002 1 10.0002H4.434L10.14 0.486247C10.2075 0.373555 10.2965 0.275262 10.402 0.196982C10.5075 0.118702 10.6273 0.061969 10.7547 0.030024C10.8821 -0.00192099 11.0146 -0.0084521 11.1445 0.0108034C11.2745 0.0300589 11.4013 0.0747237 11.514 0.142247ZM4.326 14.0002L7.754 26.0002H24.246L27.674 14.0002H4.326Z" fill="white"/>
</svg>
