<svg width="28" height="31" viewBox="0 0 28 31" fill="none" xmlns="http://www.w3.org/2000/svg">
<path d="M6.71 0.0449752C6.96355 -0.0316655 7.23714 -0.00458321 7.47074 0.120278C7.70434 0.24514 7.87886 0.45758 7.956 0.710975L8.538 2.62298C10.1629 1.56409 12.0606 1.00054 14 1.00098C16.014 1.00098 17.892 1.59698 19.462 2.62298L20.042 0.710975C20.0794 0.584452 20.1414 0.46657 20.2245 0.364122C20.3076 0.261673 20.4102 0.176682 20.5263 0.114046C20.6424 0.0514092 20.7697 0.0123646 20.901 -0.000838493C21.0322 -0.0140416 21.1648 -0.00114233 21.2911 0.0371163C21.4173 0.0753748 21.5348 0.138237 21.6366 0.22208C21.7385 0.305923 21.8227 0.409091 21.8845 0.52564C21.9463 0.642189 21.9845 0.769815 21.9967 0.901167C22.009 1.03252 21.9952 1.165 21.956 1.29098L21.136 3.99498C22.9717 5.86487 24.0001 8.3806 24 11.001H25C25.2652 11.001 25.5196 10.8956 25.7071 10.7081C25.8946 10.5205 26 10.2662 26 10.001V9.00098C26 8.73576 26.1054 8.48141 26.2929 8.29387C26.4804 8.10633 26.7348 8.00098 27 8.00098C27.2652 8.00098 27.5196 8.10633 27.7071 8.29387C27.8946 8.48141 28 8.73576 28 9.00098V10.001C28 10.7966 27.6839 11.5597 27.1213 12.1223C26.5587 12.6849 25.7956 13.001 25 13.001H24V15.001H27C27.2652 15.001 27.5196 15.1063 27.7071 15.2939C27.8946 15.4814 28 15.7358 28 16.001C28 16.2662 27.8946 16.5205 27.7071 16.7081C27.5196 16.8956 27.2652 17.001 27 17.001H24V19.001H25C25.7956 19.001 26.5587 19.317 27.1213 19.8797C27.6839 20.4423 28 21.2053 28 22.001V23.001C28 23.2662 27.8946 23.5205 27.7071 23.7081C27.5196 23.8956 27.2652 24.001 27 24.001C26.7348 24.001 26.4804 23.8956 26.2929 23.7081C26.1054 23.5205 26 23.2662 26 23.001V22.001C26 21.7358 25.8946 21.4814 25.7071 21.2939C25.5196 21.1063 25.2652 21.001 25 21.001H24C24 23.6531 22.9464 26.1967 21.0711 28.072C19.1957 29.9474 16.6522 31.001 14 31.001C11.3478 31.001 8.8043 29.9474 6.92893 28.072C5.05357 26.1967 4 23.6531 4 21.001H3C2.73478 21.001 2.48043 21.1063 2.29289 21.2939C2.10536 21.4814 2 21.7358 2 22.001V23.001C2 23.2662 1.89464 23.5205 1.70711 23.7081C1.51957 23.8956 1.26522 24.001 1 24.001C0.734784 24.001 0.48043 23.8956 0.292893 23.7081C0.105357 23.5205 0 23.2662 0 23.001V22.001C0 21.2053 0.316071 20.4423 0.87868 19.8797C1.44129 19.317 2.20435 19.001 3 19.001H4V17.001H1C0.734784 17.001 0.48043 16.8956 0.292893 16.7081C0.105357 16.5205 0 16.2662 0 16.001C0 15.7358 0.105357 15.4814 0.292893 15.2939C0.48043 15.1063 0.734784 15.001 1 15.001H4V13.001H3C2.20435 13.001 1.44129 12.6849 0.87868 12.1223C0.316071 11.5597 0 10.7966 0 10.001V9.00098C0 8.73576 0.105357 8.48141 0.292893 8.29387C0.48043 8.10633 0.734784 8.00098 1 8.00098C1.26522 8.00098 1.51957 8.10633 1.70711 8.29387C1.89464 8.48141 2 8.73576 2 9.00098V10.001C2 10.2662 2.10536 10.5205 2.29289 10.7081C2.48043 10.8956 2.73478 11.001 3 11.001H4C4 8.27298 5.094 5.79898 6.864 3.99498L6.044 1.29098C5.96736 1.03743 5.99444 0.763834 6.1193 0.530234C6.24417 0.296634 6.4566 0.122114 6.71 0.0449752ZM6 13.001V21.001C5.99933 22.95 6.71019 24.8322 7.99909 26.2942C9.28799 27.7562 11.0663 28.6973 13 28.941V13.001H6ZM15 13.001V28.941C16.9337 28.6973 18.712 27.7562 20.0009 26.2942C21.2898 24.8322 22.0007 22.95 22 21.001V13.001H15ZM22 11.001C22 9.87511 21.7623 8.76192 21.3026 7.73419C20.8428 6.70647 20.1713 5.78737 19.332 5.03697C17.8674 3.72254 15.9679 2.99721 14 3.00098C12.0314 2.99671 10.1311 3.72208 8.666 5.03697C7.82702 5.78755 7.1559 6.70674 6.69649 7.73445C6.23709 8.76216 5.99975 9.87526 6 11.001H22Z" fill="#F80032"/>
</svg>
