<svg width="32" height="30" viewBox="0 0 32 30" fill="none" xmlns="http://www.w3.org/2000/svg">
<path d="M5.356 21.788C5.56359 21.9964 5.72267 22.248 5.82188 22.5249C5.9211 22.8018 5.95802 23.0972 5.93 23.39C5.78909 24.7451 5.52262 26.0842 5.134 27.39C7.924 26.744 9.628 25.996 10.402 25.604C10.841 25.3817 11.3466 25.329 11.822 25.456C13.1846 25.8207 14.5894 26.0036 16 26C23.992 26 30 20.386 30 14C30 7.614 23.992 2 16 2C8.008 2 2 7.616 2 14C2 16.936 3.234 19.66 5.356 21.788ZM4.37 29.598C3.89612 29.6918 3.42072 29.7778 2.944 29.856C2.544 29.92 2.24 29.504 2.398 29.132C2.57511 28.713 2.73787 28.2881 2.886 27.858L2.892 27.838C3.388 26.398 3.792 24.742 3.94 23.2C1.486 20.74 0 17.52 0 14C0 6.268 7.164 0 16 0C24.836 0 32 6.268 32 14C32 21.732 24.836 28 16 28C14.4152 28.0035 12.8369 27.7978 11.306 27.388C10.266 27.914 8.028 28.872 4.37 29.598Z" fill="white"/>
</svg>
