<svg width="14" height="26" viewBox="0 0 14 26" fill="none" xmlns="http://www.w3.org/2000/svg">
<path fill-rule="evenodd" clip-rule="evenodd" d="M0.289881 0.291835C0.382772 0.198708 0.493123 0.124822 0.614614 0.0744095C0.736104 0.0239966 0.866346 -0.00195312 0.997881 -0.00195312C1.12942 -0.00195312 1.25966 0.0239966 1.38115 0.0744095C1.50264 0.124822 1.61299 0.198708 1.70588 0.291835L13.7059 12.2918C13.799 12.3847 13.8729 12.4951 13.9233 12.6166C13.9737 12.7381 13.9997 12.8683 13.9997 12.9998C13.9997 13.1314 13.9737 13.2616 13.9233 13.3831C13.8729 13.5046 13.799 13.6149 13.7059 13.7078L1.70588 25.7078C1.51811 25.8956 1.26343 26.0011 0.997881 26.0011C0.732329 26.0011 0.477654 25.8956 0.289881 25.7078C0.102107 25.5201 -0.00338268 25.2654 -0.00338268 24.9998C-0.00338268 24.7343 0.102107 24.4796 0.289881 24.2918L11.5839 12.9998L0.289881 1.70783C0.196754 1.61494 0.122868 1.50459 0.0724554 1.3831C0.0220425 1.26161 -0.00390625 1.13137 -0.00390625 0.999835C-0.00390625 0.8683 0.0220425 0.738058 0.0724554 0.616567C0.122868 0.495077 0.196754 0.384726 0.289881 0.291835Z" fill="#F80032"/>
</svg>
