<svg width="14" height="26" viewBox="0 0 14 26" fill="none" xmlns="http://www.w3.org/2000/svg">
<path fill-rule="evenodd" clip-rule="evenodd" d="M13.7059 0.291835C13.799 0.384726 13.8729 0.495077 13.9233 0.616567C13.9737 0.738058 13.9997 0.8683 13.9997 0.999835C13.9997 1.13137 13.9737 1.26161 13.9233 1.3831C13.8729 1.50459 13.799 1.61494 13.7059 1.70783L2.41188 12.9998L13.7059 24.2918C13.8937 24.4796 13.9991 24.7343 13.9991 24.9998C13.9991 25.2654 13.8937 25.5201 13.7059 25.7078C13.5181 25.8956 13.2634 26.0011 12.9979 26.0011C12.7323 26.0011 12.4777 25.8956 12.2899 25.7078L0.289881 13.7078C0.196754 13.6149 0.122868 13.5046 0.0724554 13.3831C0.0220425 13.2616 -0.00390625 13.1314 -0.00390625 12.9998C-0.00390625 12.8683 0.0220425 12.7381 0.0724554 12.6166C0.122868 12.4951 0.196754 12.3847 0.289881 12.2918L12.2899 0.291835C12.3828 0.198708 12.4931 0.124822 12.6146 0.0744095C12.7361 0.0239966 12.8663 -0.00195312 12.9979 -0.00195312C13.1294 -0.00195312 13.2597 0.0239966 13.3811 0.0744095C13.5026 0.124822 13.613 0.198708 13.7059 0.291835Z" fill="#F80032"/>
</svg>
