<svg width="32" height="32" viewBox="0 0 32 32" fill="none" xmlns="http://www.w3.org/2000/svg">
<path d="M15.9986 9.50838C15.146 9.50838 14.3018 9.6763 13.5142 10.0026C12.7266 10.3288 12.0109 10.807 11.408 11.4098C10.8052 12.0127 10.327 12.7284 10.0008 13.516C9.6745 14.3036 9.50658 15.1478 9.50658 16.0004C9.50658 16.8529 9.6745 17.6971 10.0008 18.4848C10.327 19.2724 10.8052 19.9881 11.408 20.5909C12.0109 21.1938 12.7266 21.6719 13.5142 21.9982C14.3018 22.3245 15.146 22.4924 15.9986 22.4924C17.7204 22.4924 19.3716 21.8084 20.5891 20.5909C21.8066 19.3734 22.4906 17.7222 22.4906 16.0004C22.4906 14.2786 21.8066 12.6273 20.5891 11.4098C19.3716 10.1924 17.7204 9.50838 15.9986 9.50838ZM11.5066 16.0004C11.5066 14.809 11.9798 13.6665 12.8223 12.8241C13.6647 11.9816 14.8072 11.5084 15.9986 11.5084C17.1899 11.5084 18.3325 11.9816 19.1749 12.8241C20.0173 13.6665 20.4906 14.809 20.4906 16.0004C20.4906 17.1917 20.0173 18.3343 19.1749 19.1767C18.3325 20.0191 17.1899 20.4924 15.9986 20.4924C14.8072 20.4924 13.6647 20.0191 12.8223 19.1767C11.9798 18.3343 11.5066 17.1917 11.5066 16.0004Z" fill="#F80032"/>
<path d="M19.591 2.68598C18.537 -0.894023 13.461 -0.894023 12.407 2.68598L12.219 3.32398C12.1454 3.57388 12.0168 3.80415 11.8426 3.99789C11.6685 4.19164 11.4532 4.34396 11.2125 4.44368C10.9718 4.5434 10.7119 4.588 10.4517 4.57421C10.1916 4.56042 9.93778 4.48859 9.709 4.36398L9.125 4.04398C5.845 2.25998 2.259 5.84798 4.045 9.12598L4.363 9.70998C4.48761 9.93876 4.55944 10.1925 4.57324 10.4527C4.58703 10.7128 4.54243 10.9728 4.4427 11.2135C4.34298 11.4541 4.19066 11.6694 3.99692 11.8436C3.80317 12.0178 3.5729 12.1464 3.323 12.22L2.685 12.408C-0.895 13.462 -0.895 18.538 2.685 19.592L3.323 19.78C3.5729 19.8536 3.80317 19.9822 3.99692 20.1563C4.19066 20.3305 4.34298 20.5458 4.4427 20.7865C4.54243 21.0272 4.58703 21.2871 4.57324 21.5473C4.55944 21.8074 4.48761 22.0612 4.363 22.29L4.043 22.874C2.259 26.154 5.845 29.742 9.125 27.954L9.709 27.636C9.93778 27.5114 10.1916 27.4395 10.4517 27.4257C10.7119 27.412 10.9718 27.4565 11.2125 27.5563C11.4532 27.656 11.6685 27.8083 11.8426 28.0021C12.0168 28.1958 12.1454 28.4261 12.219 28.676L12.407 29.314C13.461 32.894 18.537 32.894 19.591 29.314L19.779 28.676C19.8526 28.4261 19.9812 28.1958 20.1554 28.0021C20.3295 27.8083 20.5448 27.656 20.7855 27.5563C21.0262 27.4565 21.2861 27.412 21.5463 27.4257C21.8064 27.4395 22.0602 27.5114 22.289 27.636L22.873 27.956C26.153 29.742 29.741 26.152 27.953 22.874L27.635 22.29C27.5104 22.0612 27.4386 21.8074 27.4248 21.5473C27.411 21.2871 27.4556 21.0272 27.5553 20.7865C27.655 20.5458 27.8073 20.3305 28.0011 20.1563C28.1948 19.9822 28.4251 19.8536 28.675 19.78L29.313 19.592C32.893 18.538 32.893 13.462 29.313 12.408L28.675 12.22C28.4251 12.1464 28.1948 12.0178 28.0011 11.8436C27.8073 11.6694 27.655 11.4541 27.5553 11.2135C27.4556 10.9728 27.411 10.7128 27.4248 10.4527C27.4386 10.1925 27.5104 9.93876 27.635 9.70998L27.955 9.12598C29.741 5.84598 26.151 2.25998 22.873 4.04598L22.289 4.36398C22.0602 4.48859 21.8064 4.56042 21.5463 4.57421C21.2861 4.588 21.0262 4.5434 20.7855 4.44368C20.5448 4.34396 20.3295 4.19164 20.1554 3.99789C19.9812 3.80415 19.8526 3.57388 19.779 3.32398L19.591 2.68598ZM14.325 3.25198C14.817 1.58198 17.181 1.58198 17.673 3.25198L17.861 3.88998C18.019 4.42615 18.2951 4.92015 18.6689 5.33578C19.0426 5.7514 19.5047 6.0781 20.0212 6.29194C20.5376 6.50577 21.0954 6.60131 21.6536 6.57156C22.2118 6.5418 22.7562 6.3875 23.247 6.11998L23.829 5.79998C25.357 4.96998 27.029 6.63998 26.197 8.16998L25.879 8.75398C25.6119 9.24483 25.458 9.78923 25.4285 10.3473C25.3991 10.9053 25.4949 11.4629 25.7089 11.9791C25.9229 12.4954 26.2497 12.9572 26.6653 13.3307C27.081 13.7043 27.5749 13.9801 28.111 14.138L28.747 14.326C30.417 14.818 30.417 17.182 28.747 17.674L28.109 17.862C27.5728 18.02 27.0788 18.296 26.6632 18.6698C26.2476 19.0436 25.9209 19.5057 25.707 20.0221C25.4932 20.5386 25.3977 21.0964 25.4274 21.6545C25.4572 22.2127 25.6115 22.7572 25.879 23.248L26.199 23.83C27.029 25.358 25.359 27.03 23.829 26.198L23.247 25.88C22.7561 25.6125 22.2115 25.4583 21.6532 25.4286C21.0949 25.399 20.5371 25.4947 20.0206 25.7087C19.5041 25.9228 19.042 26.2497 18.6684 26.6656C18.2947 27.0814 18.0188 27.5756 17.861 28.112L17.673 28.748C17.181 30.418 14.817 30.418 14.325 28.748L14.137 28.11C13.9789 27.5741 13.7029 27.0804 13.3293 26.6649C12.9556 26.2495 12.4938 25.923 11.9776 25.7091C11.4614 25.4953 10.9039 25.3997 10.3459 25.4293C9.78799 25.4588 9.24372 25.6128 8.753 25.88L8.169 26.2C6.641 27.03 4.969 25.36 5.801 23.83L6.119 23.248C6.3869 22.7571 6.5415 22.2125 6.57145 21.654C6.6014 21.0956 6.50595 20.5376 6.29209 20.0209C6.07823 19.5041 5.75139 19.0419 5.33556 18.6679C4.91972 18.294 4.42545 18.0179 3.889 17.86L3.251 17.672C1.581 17.18 1.581 14.816 3.251 14.324L3.889 14.136C4.42461 13.9778 4.91808 13.7019 5.33328 13.3284C5.74849 12.9548 6.07493 12.4932 6.28871 11.9773C6.50249 11.4613 6.5982 10.9041 6.56883 10.3464C6.53947 9.78871 6.38578 9.24462 6.119 8.75398L5.799 8.16998C4.969 6.64198 6.639 4.96998 8.169 5.80198L8.753 6.11998C9.24372 6.38713 9.78799 6.54112 10.3459 6.57068C10.9039 6.60024 11.4614 6.50462 11.9776 6.29081C12.4938 6.077 12.9556 5.75043 13.3293 5.33502C13.7029 4.9196 13.9789 4.42587 14.137 3.88998L14.325 3.25198Z" fill="#F80032"/>
</svg>
