<svg width="25" height="32" viewBox="0 0 25 32" fill="none" xmlns="http://www.w3.org/2000/svg">
<path d="M13.728 0.0921684C11.816 -0.385832 10.04 1.06017 9.912 2.93217C9.768 5.03417 9.452 6.96417 9.056 8.11217C8.806 8.83217 8.098 10.1382 6.976 11.3902C5.862 12.6362 4.412 13.7462 2.714 14.2102C1.37 14.5762 0 15.7402 0 17.4402V25.4422C0 27.1322 1.364 28.3702 2.896 28.5322C5.036 28.7602 6.024 29.3622 7.032 29.9782L7.128 30.0382C7.672 30.3682 8.284 30.7342 9.068 31.0062C9.862 31.2782 10.79 31.4402 12 31.4402H19C20.874 31.4402 22.198 30.4862 22.868 29.3122C23.1918 28.7582 23.3668 28.1298 23.376 27.4882C23.376 27.1842 23.33 26.8642 23.222 26.5602C23.624 26.0342 23.982 25.4042 24.198 24.7582C24.418 24.0982 24.542 23.2342 24.206 22.4602C24.344 22.2002 24.446 21.9222 24.524 21.6542C24.678 21.1142 24.75 20.5182 24.75 19.9402C24.75 19.3642 24.678 18.7702 24.524 18.2282C24.4556 17.9785 24.3632 17.736 24.248 17.5042C24.5982 17.0059 24.8235 16.4308 24.905 15.8272C24.9864 15.2237 24.9216 14.6094 24.716 14.0362C24.304 12.8522 23.352 11.8362 22.316 11.4922C20.622 10.9282 18.71 10.9402 17.284 11.0702C16.988 11.0969 16.6926 11.1303 16.398 11.1702C17.089 8.19863 17.0464 5.10358 16.274 2.15217C16.1391 1.67935 15.8804 1.25114 15.5246 0.911828C15.1687 0.572517 14.7287 0.334423 14.25 0.222168L13.728 0.0921684ZM19 29.4422H12C10.98 29.4422 10.274 29.3042 9.72 29.1142C9.158 28.9202 8.708 28.6582 8.168 28.3282L8.088 28.2802C6.978 27.6022 5.692 26.8182 3.108 26.5442C2.442 26.4722 2 25.9642 2 25.4442V17.4402C2 16.9322 2.452 16.3542 3.24 16.1402C5.43 15.5402 7.194 14.1482 8.468 12.7242C9.738 11.3042 10.596 9.77417 10.944 8.76817C11.43 7.36817 11.758 5.23217 11.908 3.06817C11.958 2.34417 12.628 1.88017 13.242 2.03217L13.766 2.16417C14.086 2.24417 14.282 2.45017 14.342 2.67417C15.1588 5.78621 15.0581 9.06806 14.052 12.1242C13.9951 12.2941 13.9848 12.4763 14.0224 12.6516C14.06 12.8268 14.1441 12.9888 14.2657 13.1205C14.3874 13.2521 14.5422 13.3487 14.7139 13.4C14.8857 13.4513 15.0681 13.4555 15.242 13.4122L15.248 13.4102L15.276 13.4042L15.392 13.3762C16.076 13.2313 16.7678 13.1265 17.464 13.0622C18.79 12.9422 20.378 12.9542 21.684 13.3902C22.034 13.5062 22.584 13.9902 22.824 14.6902C23.038 15.3062 22.998 16.0302 22.292 16.7342L21.586 17.4402L22.292 18.1482C22.378 18.2342 22.502 18.4302 22.6 18.7782C22.696 19.1122 22.75 19.5182 22.75 19.9402C22.75 20.3642 22.696 20.7682 22.6 21.1042C22.5 21.4522 22.378 21.6482 22.292 21.7342L21.586 22.4402L22.292 23.1482C22.386 23.2422 22.51 23.5022 22.302 24.1242C22.0866 24.728 21.7419 25.2775 21.292 25.7342L20.586 26.4402L21.292 27.1482C21.304 27.1582 21.374 27.2482 21.374 27.4882C21.3623 27.7811 21.2792 28.0667 21.132 28.3202C20.802 28.8962 20.126 29.4422 19 29.4422Z" fill="#F80032"/>
</svg>
