<svg width="25" height="32" viewBox="0 0 25 32" fill="none" xmlns="http://www.w3.org/2000/svg">
<path d="M13.728 31.348C11.816 31.828 10.042 30.38 9.912 28.508C9.768 26.408 9.452 24.478 9.056 23.328C8.806 22.608 8.098 21.304 6.976 20.052C5.862 18.804 4.412 17.694 2.714 17.232C1.37 16.864 0 15.7 0 14V6C0 4.31 1.364 3.072 2.896 2.908C5.036 2.682 6.024 2.078 7.032 1.462L7.128 1.404C7.672 1.072 8.284 0.706 9.068 0.436C9.862 0.16 10.79 0 12 0H19C20.874 0 22.198 0.956 22.868 2.128C23.196 2.702 23.376 3.342 23.376 3.954C23.376 4.258 23.33 4.578 23.222 4.882C23.624 5.406 23.982 6.036 24.198 6.682C24.418 7.342 24.542 8.206 24.206 8.982C24.344 9.242 24.446 9.518 24.524 9.788C24.678 10.328 24.75 10.922 24.75 11.5C24.75 12.078 24.678 12.672 24.524 13.212C24.454 13.452 24.364 13.7 24.248 13.938C25.036 15.08 25.084 16.338 24.716 17.404C24.304 18.588 23.352 19.604 22.316 19.948C20.622 20.514 18.71 20.5 17.284 20.37C16.988 20.3433 16.6926 20.3099 16.398 20.27C17.0925 23.2418 17.05 26.3384 16.274 29.29C15.998 30.306 15.174 30.986 14.25 31.218L13.728 31.348ZM19 2H12C10.98 2 10.274 2.136 9.72 2.326C9.158 2.52 8.708 2.784 8.168 3.112L8.088 3.162C6.978 3.838 5.692 4.622 3.108 4.898C2.442 4.968 2 5.478 2 5.998V14C2 14.51 2.452 15.086 3.24 15.3C5.43 15.9 7.194 17.294 8.468 18.718C9.738 20.138 10.596 21.668 10.944 22.672C11.43 24.072 11.758 26.208 11.908 28.372C11.958 29.096 12.628 29.562 13.242 29.408L13.766 29.278C14.086 29.198 14.282 28.99 14.342 28.768C15.1592 25.6553 15.0585 22.3727 14.052 19.316C13.9955 19.1461 13.9857 18.9642 14.0235 18.7893C14.0613 18.6143 14.1454 18.4527 14.267 18.3213C14.3885 18.1899 14.5431 18.0936 14.7146 18.0424C14.8862 17.9911 15.0683 17.9868 15.242 18.03H15.248L15.276 18.038L15.392 18.064C16.076 18.2088 16.7678 18.3137 17.464 18.378C18.79 18.498 20.378 18.486 21.684 18.052C22.034 17.934 22.584 17.45 22.824 16.75C23.038 16.134 22.998 15.41 22.292 14.708L21.586 14L22.292 13.292C22.378 13.208 22.502 13.012 22.6 12.662C22.696 12.328 22.75 11.922 22.75 11.5C22.75 11.078 22.696 10.672 22.6 10.338C22.5 9.99 22.378 9.792 22.292 9.708L21.586 9L22.292 8.292C22.386 8.198 22.51 7.94 22.302 7.316C22.0864 6.71288 21.7417 6.1641 21.292 5.708L20.586 5L21.292 4.292C21.304 4.282 21.374 4.192 21.374 3.952C21.362 3.65978 21.2789 3.3749 21.132 3.122C20.8 2.544 20.126 2 19 2Z" fill="#F80032"/>
</svg>
