<svg width="28" height="30" viewBox="0 0 28 30" fill="none" xmlns="http://www.w3.org/2000/svg">
<path d="M1.84 0.0118344C1.99652 -0.0136619 2.15686 -0.00156845 2.30778 0.0471165C2.4587 0.0958015 2.59588 0.179682 2.708 0.291834L4 1.58583L5.292 0.291834C5.38489 0.198708 5.49524 0.124822 5.61673 0.0744094C5.73822 0.0239965 5.86847 -0.00195313 6 -0.00195312C6.13153 -0.00195313 6.26178 0.0239965 6.38327 0.0744094C6.50476 0.124822 6.61511 0.198708 6.708 0.291834L8 1.58583L9.292 0.291834C9.38489 0.198708 9.49524 0.124822 9.61673 0.0744094C9.73822 0.0239965 9.86847 -0.00195313 10 -0.00195312C10.1315 -0.00195313 10.2618 0.0239965 10.3833 0.0744094C10.5048 0.124822 10.6151 0.198708 10.708 0.291834L12 1.58583L13.292 0.291834C13.3849 0.198708 13.4952 0.124822 13.6167 0.0744094C13.7382 0.0239965 13.8685 -0.00195313 14 -0.00195312C14.1315 -0.00195313 14.2618 0.0239965 14.3833 0.0744094C14.5048 0.124822 14.6151 0.198708 14.708 0.291834L16 1.58583L17.292 0.291834C17.3849 0.198708 17.4952 0.124822 17.6167 0.0744094C17.7382 0.0239965 17.8685 -0.00195312 18 -0.00195312C18.1315 -0.00195312 18.2618 0.0239965 18.3833 0.0744094C18.5048 0.124822 18.6151 0.198708 18.708 0.291834L20 1.58583L21.292 0.291834C21.3849 0.198708 21.4952 0.124822 21.6167 0.0744094C21.7382 0.0239965 21.8685 -0.00195312 22 -0.00195312C22.1315 -0.00195312 22.2618 0.0239965 22.3833 0.0744094C22.5048 0.124822 22.6151 0.198708 22.708 0.291834L24 1.58583L25.292 0.291834C25.404 0.1797 25.5411 0.0958089 25.692 0.0470816C25.8428 -0.00164577 26.0031 -0.0138137 26.1596 0.0115815C26.3161 0.0369767 26.4643 0.0992074 26.5919 0.193141C26.7196 0.287074 26.8232 0.410019 26.894 0.551834L27.894 2.55183C27.9637 2.69089 28 2.84429 28 2.99983V26.9998C28 27.1554 27.9637 27.3088 27.894 27.4478L26.894 29.4478C26.8231 29.5893 26.7196 29.7119 26.5921 29.8056C26.4646 29.8993 26.3166 29.9613 26.1604 29.9867C26.0043 30.0121 25.8443 30.0001 25.6937 29.9516C25.543 29.9031 25.4061 29.8196 25.294 29.7078L24 28.4138L22.708 29.7078C22.6151 29.801 22.5048 29.8748 22.3833 29.9253C22.2618 29.9757 22.1315 30.0016 22 30.0016C21.8685 30.0016 21.7382 29.9757 21.6167 29.9253C21.4952 29.8748 21.3849 29.801 21.292 29.7078L20 28.4138L18.708 29.7078C18.6151 29.801 18.5048 29.8748 18.3833 29.9253C18.2618 29.9757 18.1315 30.0016 18 30.0016C17.8685 30.0016 17.7382 29.9757 17.6167 29.9253C17.4952 29.8748 17.3849 29.801 17.292 29.7078L16 28.4138L14.708 29.7078C14.6151 29.801 14.5048 29.8748 14.3833 29.9253C14.2618 29.9757 14.1315 30.0016 14 30.0016C13.8685 30.0016 13.7382 29.9757 13.6167 29.9253C13.4952 29.8748 13.3849 29.801 13.292 29.7078L12 28.4138L10.708 29.7078C10.6151 29.801 10.5048 29.8748 10.3833 29.9253C10.2618 29.9757 10.1315 30.0016 10 30.0016C9.86847 30.0016 9.73822 29.9757 9.61673 29.9253C9.49524 29.8748 9.38489 29.801 9.292 29.7078L8 28.4138L6.708 29.7078C6.61511 29.801 6.50476 29.8748 6.38327 29.9253C6.26178 29.9757 6.13153 30.0016 6 30.0016C5.86847 30.0016 5.73822 29.9757 5.61673 29.9253C5.49524 29.8748 5.38489 29.801 5.292 29.7078L4 28.4138L2.708 29.7078C2.59595 29.82 2.45885 29.9039 2.30801 29.9526C2.15716 30.0013 1.99689 30.0135 1.84042 29.9881C1.68394 29.9627 1.53575 29.9005 1.40806 29.8065C1.28036 29.7126 1.17683 29.5896 1.106 29.4478L0.106 27.4478C0.0363054 27.3088 1.04159e-05 27.1554 0 26.9998V2.99983C1.04159e-05 2.84429 0.0363054 2.69089 0.106 2.55183L1.106 0.551834C1.17682 0.410117 1.2803 0.287255 1.40792 0.19337C1.53553 0.0994857 1.68363 0.0372649 1.84 0.0118344ZM2.274 2.68783L2 3.23583V26.7638L2.274 27.3118L3.294 26.2918C3.48153 26.1044 3.73584 25.999 4.001 25.999C4.26616 25.999 4.52047 26.1044 4.708 26.2918L6 27.5858L7.292 26.2938C7.38489 26.2007 7.49524 26.1268 7.61673 26.0764C7.73822 26.026 7.86847 26 8 26C8.13153 26 8.26178 26.026 8.38327 26.0764C8.50476 26.1268 8.61511 26.2007 8.708 26.2938L10 27.5858L11.292 26.2938C11.3849 26.2007 11.4952 26.1268 11.6167 26.0764C11.7382 26.026 11.8685 26 12 26C12.1315 26 12.2618 26.026 12.3833 26.0764C12.5048 26.1268 12.6151 26.2007 12.708 26.2938L14 27.5858L15.292 26.2938C15.3849 26.2007 15.4952 26.1268 15.6167 26.0764C15.7382 26.026 15.8685 26 16 26C16.1315 26 16.2618 26.026 16.3833 26.0764C16.5048 26.1268 16.6151 26.2007 16.708 26.2938L18 27.5858L19.292 26.2938C19.3849 26.2007 19.4952 26.1268 19.6167 26.0764C19.7382 26.026 19.8685 26 20 26C20.1315 26 20.2618 26.026 20.3833 26.0764C20.5048 26.1268 20.6151 26.2007 20.708 26.2938L22 27.5858L23.292 26.2938C23.3849 26.2007 23.4952 26.1268 23.6167 26.0764C23.7382 26.026 23.8685 26 24 26C24.1315 26 24.2618 26.026 24.3833 26.0764C24.5048 26.1268 24.6151 26.2007 24.708 26.2938L25.726 27.3118L26 26.7638V3.23583L25.726 2.68783L24.706 3.70783C24.5185 3.89531 24.2642 4.00062 23.999 4.00062C23.7338 4.00062 23.4795 3.89531 23.292 3.70783L22 2.41383L20.708 3.70783C20.6151 3.80096 20.5048 3.87485 20.3833 3.92526C20.2618 3.97567 20.1315 4.00162 20 4.00162C19.8685 4.00162 19.7382 3.97567 19.6167 3.92526C19.4952 3.87485 19.3849 3.80096 19.292 3.70783L18 2.41383L16.708 3.70783C16.6151 3.80096 16.5048 3.87485 16.3833 3.92526C16.2618 3.97567 16.1315 4.00162 16 4.00162C15.8685 4.00162 15.7382 3.97567 15.6167 3.92526C15.4952 3.87485 15.3849 3.80096 15.292 3.70783L14 2.41383L12.708 3.70783C12.6151 3.80096 12.5048 3.87485 12.3833 3.92526C12.2618 3.97567 12.1315 4.00162 12 4.00162C11.8685 4.00162 11.7382 3.97567 11.6167 3.92526C11.4952 3.87485 11.3849 3.80096 11.292 3.70783L10 2.41383L8.708 3.70783C8.61511 3.80096 8.50476 3.87485 8.38327 3.92526C8.26178 3.97567 8.13153 4.00162 8 4.00162C7.86847 4.00162 7.73822 3.97567 7.61673 3.92526C7.49524 3.87485 7.38489 3.80096 7.292 3.70783L6 2.41383L4.708 3.70783C4.61511 3.80096 4.50476 3.87485 4.38327 3.92526C4.26178 3.97567 4.13153 4.00162 4 4.00162C3.86847 4.00162 3.73822 3.97567 3.61673 3.92526C3.49524 3.87485 3.38489 3.80096 3.292 3.70783L2.274 2.68783Z" fill="#F80032"/>
<path d="M4 8C4 7.73478 4.10536 7.48043 4.29289 7.29289C4.48043 7.10536 4.73478 7 5 7H17C17.2652 7 17.5196 7.10536 17.7071 7.29289C17.8946 7.48043 18 7.73478 18 8C18 8.26522 17.8946 8.51957 17.7071 8.70711C17.5196 8.89464 17.2652 9 17 9H5C4.73478 9 4.48043 8.89464 4.29289 8.70711C4.10536 8.51957 4 8.26522 4 8ZM4 12C4 11.7348 4.10536 11.4804 4.29289 11.2929C4.48043 11.1054 4.73478 11 5 11H17C17.2652 11 17.5196 11.1054 17.7071 11.2929C17.8946 11.4804 18 11.7348 18 12C18 12.2652 17.8946 12.5196 17.7071 12.7071C17.5196 12.8946 17.2652 13 17 13H5C4.73478 13 4.48043 12.8946 4.29289 12.7071C4.10536 12.5196 4 12.2652 4 12ZM4 16C4 15.7348 4.10536 15.4804 4.29289 15.2929C4.48043 15.1054 4.73478 15 5 15H17C17.2652 15 17.5196 15.1054 17.7071 15.2929C17.8946 15.4804 18 15.7348 18 16C18 16.2652 17.8946 16.5196 17.7071 16.7071C17.5196 16.8946 17.2652 17 17 17H5C4.73478 17 4.48043 16.8946 4.29289 16.7071C4.10536 16.5196 4 16.2652 4 16ZM4 20C4 19.7348 4.10536 19.4804 4.29289 19.2929C4.48043 19.1054 4.73478 19 5 19H17C17.2652 19 17.5196 19.1054 17.7071 19.2929C17.8946 19.4804 18 19.7348 18 20C18 20.2652 17.8946 20.5196 17.7071 20.7071C17.5196 20.8946 17.2652 21 17 21H5C4.73478 21 4.48043 20.8946 4.29289 20.7071C4.10536 20.5196 4 20.2652 4 20ZM20 8C20 7.73478 20.1054 7.48043 20.2929 7.29289C20.4804 7.10536 20.7348 7 21 7H23C23.2652 7 23.5196 7.10536 23.7071 7.29289C23.8946 7.48043 24 7.73478 24 8C24 8.26522 23.8946 8.51957 23.7071 8.70711C23.5196 8.89464 23.2652 9 23 9H21C20.7348 9 20.4804 8.89464 20.2929 8.70711C20.1054 8.51957 20 8.26522 20 8ZM20 12C20 11.7348 20.1054 11.4804 20.2929 11.2929C20.4804 11.1054 20.7348 11 21 11H23C23.2652 11 23.5196 11.1054 23.7071 11.2929C23.8946 11.4804 24 11.7348 24 12C24 12.2652 23.8946 12.5196 23.7071 12.7071C23.5196 12.8946 23.2652 13 23 13H21C20.7348 13 20.4804 12.8946 20.2929 12.7071C20.1054 12.5196 20 12.2652 20 12ZM20 16C20 15.7348 20.1054 15.4804 20.2929 15.2929C20.4804 15.1054 20.7348 15 21 15H23C23.2652 15 23.5196 15.1054 23.7071 15.2929C23.8946 15.4804 24 15.7348 24 16C24 16.2652 23.8946 16.5196 23.7071 16.7071C23.5196 16.8946 23.2652 17 23 17H21C20.7348 17 20.4804 16.8946 20.2929 16.7071C20.1054 16.5196 20 16.2652 20 16ZM20 20C20 19.7348 20.1054 19.4804 20.2929 19.2929C20.4804 19.1054 20.7348 19 21 19H23C23.2652 19 23.5196 19.1054 23.7071 19.2929C23.8946 19.4804 24 19.7348 24 20C24 20.2652 23.8946 20.5196 23.7071 20.7071C23.5196 20.8946 23.2652 21 23 21H21C20.7348 21 20.4804 20.8946 20.2929 20.7071C20.1054 20.5196 20 20.2652 20 20Z" fill="#F80032"/>
</svg>
