<svg width="32" height="32" viewBox="0 0 32 32" fill="none" xmlns="http://www.w3.org/2000/svg">
<path d="M23.4858 20.6872C25.4224 18.0446 26.2898 14.7682 25.9144 11.5135C25.539 8.25884 23.9486 5.2659 21.4613 3.13348C18.974 1.00107 15.7733 -0.113568 12.4995 0.0125779C9.22564 0.138724 6.12016 1.49635 3.80433 3.81384C1.4885 6.13133 0.133097 9.23778 0.00929307 12.5117C-0.114511 15.7856 1.00241 18.9855 3.13661 21.4713C5.27081 23.9571 8.26488 25.5454 11.5198 25.9184C14.7748 26.2914 18.0506 25.4217 20.6918 23.4832H20.6898C20.7485 23.5632 20.8138 23.6399 20.8858 23.7132L28.5858 31.4132C28.9608 31.7885 29.4695 31.9994 30.0001 31.9996C30.5306 31.9998 31.0395 31.7892 31.4148 31.4142C31.7901 31.0392 32.001 30.5305 32.0012 29.9999C32.0014 29.4694 31.7908 28.9605 31.4158 28.5852L23.7158 20.8852C23.6443 20.8128 23.5674 20.7479 23.4858 20.6872ZM24.0018 12.9992C24.0018 14.4438 23.7173 15.8742 23.1645 17.2087C22.6117 18.5433 21.8014 19.756 20.78 20.7774C19.7585 21.7988 18.5459 22.6091 17.2113 23.1619C15.8767 23.7147 14.4463 23.9992 13.0018 23.9992C11.5573 23.9992 10.1269 23.7147 8.79228 23.1619C7.4577 22.6091 6.24507 21.7988 5.22362 20.7774C4.20218 19.756 3.39192 18.5433 2.83912 17.2087C2.28632 15.8742 2.0018 14.4438 2.0018 12.9992C2.0018 10.0818 3.16072 7.28395 5.22362 5.22105C7.28652 3.15815 10.0844 1.99922 13.0018 1.99922C15.9192 1.99922 18.7171 3.15815 20.78 5.22105C22.8429 7.28395 24.0018 10.0818 24.0018 12.9992Z" fill="#F80032"/>
</svg>
