<svg width="32" height="34" viewBox="0 0 32 34" fill="none" xmlns="http://www.w3.org/2000/svg">
<path fill-rule="evenodd" clip-rule="evenodd" d="M9.62028 2.28258C10.8479 1.08927 12.8842 0 16.0006 0C19.117 0 21.1533 1.08927 22.3809 2.28258C22.9922 2.87812 23.4719 3.56259 23.7969 4.30304C28.4912 5.31072 32 6.80184 32 6.80184V17.001C32 30.5996 24.0009 32.2998 16.0006 34C8.0003 32.2988 0 30.5986 0 17V6.80082C0 6.80082 3.50996 5.3097 8.2031 4.30202C8.52828 3.56163 9.00796 2.87718 9.61908 2.28156L9.62028 2.28258ZM20.0002 12.8102V7.09659C18.6802 6.91301 17.329 6.80082 16.0006 6.80082C14.671 6.80082 13.321 6.91301 11.9998 7.09659V12.8102C13.2157 12.2123 14.5959 11.8984 16.0006 11.9004C17.4574 11.9004 18.8242 12.2319 20.0002 12.8102ZM24.0009 18.7002V7.86867C25.3552 8.20018 26.6899 8.58684 28.0005 9.0273V17C28.0005 23.2419 26.1801 25.9885 24.2973 27.4552C22.3413 28.9789 19.6918 29.6919 16.0006 30.4925C12.3094 29.6919 9.65988 28.9789 7.7039 27.4552C5.81993 25.9875 4.00075 23.2429 4.00075 17V9.0273C5.31133 8.58717 6.64606 8.20086 8.0003 7.86969V18.7002C7.98733 19.6001 8.18467 20.4932 8.58088 21.3278C8.97708 22.1624 9.56427 22.9219 10.3084 23.5621C11.0525 24.2024 11.9388 24.7107 12.9158 25.0577C13.8928 25.4046 14.9411 25.5833 16 25.5833C17.0589 25.5833 18.1072 25.4046 19.0842 25.0577C20.0612 24.7107 20.9475 24.2024 21.6916 23.5621C22.4357 22.9219 23.0229 22.1624 23.4191 21.3278C23.8153 20.4932 24.0139 19.6001 24.0009 18.7002ZM17.0002 18.4728C17.3813 18.2857 17.6792 17.9971 17.8476 17.6515C18.016 17.3059 18.0456 16.9227 17.9317 16.5614C17.8178 16.2001 17.5668 15.8809 17.2176 15.6532C16.8685 15.4255 16.4407 15.302 16.0006 15.302C15.5605 15.302 15.1327 15.4255 14.7836 15.6532C14.4344 15.8809 14.1834 16.2001 14.0695 16.5614C13.9556 16.9227 13.9852 17.3059 14.1536 17.6515C14.322 17.9971 14.6199 18.2857 15.001 18.4728V21.25H17.0002V18.4728Z" fill="#F80032"/>
</svg>
