<svg width="32" height="32" viewBox="0 0 32 32" fill="none" xmlns="http://www.w3.org/2000/svg">
<path d="M27.0005 2.00063C26.2049 2.00063 25.4418 2.3167 24.8792 2.87931C24.3166 3.44192 24.0005 4.20498 24.0005 5.00063C24.0005 5.79628 24.3166 6.55934 24.8792 7.12195C25.4418 7.68456 26.2049 8.00063 27.0005 8.00063C27.7962 8.00063 28.5592 7.68456 29.1219 7.12195C29.6845 6.55934 30.0005 5.79628 30.0005 5.00063C30.0005 4.20498 29.6845 3.44192 29.1219 2.87931C28.5592 2.3167 27.7962 2.00063 27.0005 2.00063ZM22.0005 5.00063C22.0004 3.82749 22.4127 2.69166 23.1655 1.79185C23.9182 0.892041 24.9633 0.285555 26.1181 0.0785023C27.2728 -0.12855 28.4635 0.0770148 29.482 0.659233C30.5005 1.24145 31.2818 2.16325 31.6892 3.26334C32.0967 4.36344 32.1044 5.57179 31.7109 6.67697C31.3175 7.78216 30.5479 8.71381 29.5369 9.30892C28.5259 9.90402 27.3379 10.1247 26.1806 9.93233C25.0234 9.73996 23.9706 9.1468 23.2065 8.25663L9.77053 14.4966C10.0793 15.4755 10.0793 16.5257 9.77053 17.5046L23.2065 23.7446C24.0142 22.8053 25.1419 22.1992 26.3709 22.0439C27.6 21.8886 28.8429 22.1951 29.8589 22.904C30.8749 23.6129 31.5915 24.6737 31.8699 25.8809C32.1483 27.088 31.9686 28.3555 31.3657 29.4378C30.7628 30.52 29.7796 31.3399 28.6067 31.7385C27.4337 32.1372 26.1546 32.0862 25.0171 31.5955C23.8796 31.1047 22.9648 30.2092 22.45 29.0824C21.9351 27.9556 21.8569 26.6778 22.2305 25.4966L8.79453 19.2566C8.1294 20.0318 7.24283 20.5846 6.25409 20.8408C5.26534 21.097 4.22186 21.0442 3.26401 20.6896C2.30615 20.335 1.47988 19.6955 0.896345 18.8572C0.312808 18.0189 0 17.022 0 16.0006C0 14.9792 0.312808 13.9823 0.896345 13.1441C1.47988 12.3058 2.30615 11.6663 3.26401 11.3117C4.22186 10.957 5.26534 10.9043 6.25409 11.1605C7.24283 11.4166 8.1294 11.9695 8.79453 12.7446L22.2305 6.50463C22.0776 6.01796 22 5.51076 22.0005 5.00063ZM5.00053 13.0006C4.20488 13.0006 3.44182 13.3167 2.87921 13.8793C2.3166 14.4419 2.00053 15.205 2.00053 16.0006C2.00053 16.7963 2.3166 17.5593 2.87921 18.122C3.44182 18.6846 4.20488 19.0006 5.00053 19.0006C5.79618 19.0006 6.55924 18.6846 7.12185 18.122C7.68446 17.5593 8.00053 16.7963 8.00053 16.0006C8.00053 15.205 7.68446 14.4419 7.12185 13.8793C6.55924 13.3167 5.79618 13.0006 5.00053 13.0006ZM27.0005 24.0006C26.2049 24.0006 25.4418 24.3167 24.8792 24.8793C24.3166 25.4419 24.0005 26.205 24.0005 27.0006C24.0005 27.7963 24.3166 28.5593 24.8792 29.122C25.4418 29.6846 26.2049 30.0006 27.0005 30.0006C27.7962 30.0006 28.5592 29.6846 29.1219 29.122C29.6845 28.5593 30.0005 27.7963 30.0005 27.0006C30.0005 26.205 29.6845 25.4419 29.1219 24.8793C28.5592 24.3167 27.7962 24.0006 27.0005 24.0006Z" fill="#F80032"/>
</svg>
