<svg width="32" height="30" viewBox="0 0 32 30" fill="none" xmlns="http://www.w3.org/2000/svg">
<path d="M5.94 0.7C6.12777 0.480469 6.36087 0.304221 6.62327 0.183382C6.88566 0.0625431 7.17112 -1.90013e-05 7.46 4.33034e-09H24.54C24.8289 -1.90013e-05 25.1143 0.0625431 25.3767 0.183382C25.6391 0.304221 25.8722 0.480469 26.06 0.7L31.278 6.788C31.7439 7.33166 32 8.02402 32 8.74V9.25C32.0001 10.24 31.6909 11.2052 31.1156 12.0108C30.5404 12.8165 29.7277 13.4223 28.7914 13.7435C27.855 14.0647 26.8416 14.0854 25.8929 13.8025C24.9442 13.5197 24.1076 12.9475 23.5 12.166C23.0564 12.7376 22.4878 13.2001 21.8378 13.518C21.1878 13.8359 20.4736 14.0008 19.75 14C19.0264 14.0008 18.3122 13.8359 17.6622 13.518C17.0122 13.2001 16.4436 12.7376 16 12.166C15.5564 12.7376 14.9878 13.2001 14.3378 13.518C13.6878 13.8359 12.9736 14.0008 12.25 14C11.5264 14.0008 10.8122 13.8359 10.1622 13.518C9.51222 13.2001 8.94362 12.7376 8.5 12.166C7.89238 12.9475 7.05576 13.5197 6.10707 13.8025C5.15838 14.0854 4.14503 14.0647 3.20865 13.7435C2.27227 13.4223 1.45965 12.8165 0.884365 12.0108C0.309084 11.2052 -0.000109197 10.24 2.89323e-08 9.25V8.74C2.52151e-05 8.02402 0.256113 7.33166 0.722 6.788L5.94 0.7ZM9.5 9.25C9.5 9.97935 9.78973 10.6788 10.3055 11.1945C10.8212 11.7103 11.5207 12 12.25 12C12.9793 12 13.6788 11.7103 14.1945 11.1945C14.7103 10.6788 15 9.97935 15 9.25C15 8.98478 15.1054 8.73043 15.2929 8.54289C15.4804 8.35536 15.7348 8.25 16 8.25C16.2652 8.25 16.5196 8.35536 16.7071 8.54289C16.8946 8.73043 17 8.98478 17 9.25C17 9.97935 17.2897 10.6788 17.8055 11.1945C18.3212 11.7103 19.0207 12 19.75 12C20.4793 12 21.1788 11.7103 21.6945 11.1945C22.2103 10.6788 22.5 9.97935 22.5 9.25C22.5 8.98478 22.6054 8.73043 22.7929 8.54289C22.9804 8.35536 23.2348 8.25 23.5 8.25C23.7652 8.25 24.0196 8.35536 24.2071 8.54289C24.3946 8.73043 24.5 8.98478 24.5 9.25C24.5 9.97935 24.7897 10.6788 25.3055 11.1945C25.8212 11.7103 26.5207 12 27.25 12C27.9793 12 28.6788 11.7103 29.1945 11.1945C29.7103 10.6788 30 9.97935 30 9.25V8.74C30 8.50166 29.9149 8.27114 29.76 8.09L24.54 2H7.46L2.24 8.09C2.08509 8.27114 1.99998 8.50166 2 8.74V9.25C2 9.97935 2.28973 10.6788 2.80546 11.1945C3.32118 11.7103 4.02065 12 4.75 12C5.47935 12 6.17882 11.7103 6.69454 11.1945C7.21027 10.6788 7.5 9.97935 7.5 9.25C7.5 8.98478 7.60536 8.73043 7.79289 8.54289C7.98043 8.35536 8.23478 8.25 8.5 8.25C8.76522 8.25 9.01957 8.35536 9.20711 8.54289C9.39464 8.73043 9.5 8.98478 9.5 9.25ZM3 15C3.26522 15 3.51957 15.1054 3.70711 15.2929C3.89464 15.4804 4 15.7348 4 16V28H6V18C6 17.4696 6.21071 16.9609 6.58579 16.5858C6.96086 16.2107 7.46957 16 8 16H14C14.5304 16 15.0391 16.2107 15.4142 16.5858C15.7893 16.9609 16 17.4696 16 18V28H28V16C28 15.7348 28.1054 15.4804 28.2929 15.2929C28.4804 15.1054 28.7348 15 29 15C29.2652 15 29.5196 15.1054 29.7071 15.2929C29.8946 15.4804 30 15.7348 30 16V28H31C31.2652 28 31.5196 28.1054 31.7071 28.2929C31.8946 28.4804 32 28.7348 32 29C32 29.2652 31.8946 29.5196 31.7071 29.7071C31.5196 29.8946 31.2652 30 31 30H1C0.734784 30 0.48043 29.8946 0.292893 29.7071C0.105357 29.5196 2.89323e-08 29.2652 2.89323e-08 29C2.89323e-08 28.7348 0.105357 28.4804 0.292893 28.2929C0.48043 28.1054 0.734784 28 1 28H2V16C2 15.7348 2.10536 15.4804 2.29289 15.2929C2.48043 15.1054 2.73478 15 3 15ZM8 28H14V18H8V28ZM18 18C18 17.4696 18.2107 16.9609 18.5858 16.5858C18.9609 16.2107 19.4696 16 20 16H24C24.5304 16 25.0391 16.2107 25.4142 16.5858C25.7893 16.9609 26 17.4696 26 18V24C26 24.5304 25.7893 25.0391 25.4142 25.4142C25.0391 25.7893 24.5304 26 24 26H20C19.4696 26 18.9609 25.7893 18.5858 25.4142C18.2107 25.0391 18 24.5304 18 24V18ZM24 18H20V24H24V18Z" fill="#F80032"/>
</svg>
