<svg width="32" height="30" viewBox="0 0 32 30" fill="none" xmlns="http://www.w3.org/2000/svg">
<path d="M5.73321 28.6994C5.57721 29.5874 6.45321 30.2814 7.22521 29.8854L16.0052 25.3734L24.7832 29.8854C25.5552 30.2814 26.4312 29.5874 26.2752 28.7014L24.6152 19.2414L31.6592 12.5294C32.3192 11.9014 31.9792 10.7534 31.0952 10.6294L21.2992 9.23736L16.9312 0.583358C16.848 0.407935 16.7167 0.259724 16.5526 0.155943C16.3885 0.0521612 16.1984 -0.00292969 16.0042 -0.00292969C15.8101 -0.00292969 15.6199 0.0521612 15.4558 0.155943C15.2917 0.259724 15.1604 0.407935 15.0772 0.583358L10.7092 9.23936L0.913213 10.6314C0.0312131 10.7554 -0.310787 11.9034 0.347213 12.5314L7.39321 19.2434L5.73321 28.7034V28.6994ZM15.5432 23.1654L8.17121 26.9534L9.55921 19.0394C9.59262 18.8572 9.58033 18.6696 9.52344 18.4933C9.46655 18.317 9.36683 18.1576 9.23321 18.0294L3.42121 12.4894L11.5252 11.3374C11.6927 11.3112 11.8516 11.2453 11.9883 11.145C12.1251 11.0448 12.2358 10.9132 12.3112 10.7614L16.0012 3.44536L19.6952 10.7614C19.7706 10.9132 19.8813 11.0448 20.0181 11.145C20.1549 11.2453 20.3137 11.3112 20.4812 11.3374L28.5852 12.4874L22.7732 18.0274C22.6393 18.1558 22.5394 18.3156 22.4825 18.4922C22.4256 18.6689 22.4135 18.8569 22.4472 19.0394L23.8352 26.9534L16.4632 23.1654C16.3208 23.0914 16.1627 23.0528 16.0022 23.0528C15.8417 23.0528 15.6856 23.0914 15.5432 23.1654Z" fill="#FFA100"/>
</svg>
