<svg width="32" height="32" viewBox="0 0 32 32" fill="none" xmlns="http://www.w3.org/2000/svg">
<path d="M7.30894 2.65561C7.19087 2.50374 7.04184 2.37872 6.87175 2.28886C6.70165 2.19901 6.51438 2.14638 6.32238 2.13446C6.13038 2.12254 5.93804 2.15161 5.75813 2.21974C5.57823 2.28787 5.41488 2.3935 5.27894 2.52961L3.21094 4.59961C2.24494 5.56761 1.88894 6.93761 2.31094 8.13961C4.0644 13.1138 6.91325 17.6304 10.6469 21.3556C14.3721 25.0893 18.8887 27.9382 23.8629 29.6916C25.0649 30.1136 26.4349 29.7576 27.4029 28.7916L29.4709 26.7236C29.6071 26.5877 29.7127 26.4243 29.7808 26.2444C29.8489 26.0645 29.878 25.8722 29.8661 25.6802C29.8542 25.4882 29.8015 25.3009 29.7117 25.1308C29.6218 24.9607 29.4968 24.8117 29.3449 24.6936L24.7309 21.1056C24.5685 20.98 24.3798 20.8928 24.1789 20.8506C23.978 20.8083 23.7702 20.8121 23.5709 20.8616L19.1909 21.9556C18.6063 22.1007 17.994 22.0925 17.4134 21.9317C16.8329 21.7709 16.3036 21.4629 15.8769 21.0376L10.9649 16.1236C10.5393 15.6971 10.231 15.168 10.0698 14.5874C9.90862 14.0068 9.90006 13.3945 10.0449 12.8096L11.1409 8.42962C11.1905 8.23038 11.1942 8.02253 11.152 7.82163C11.1097 7.62074 11.0225 7.43201 10.8969 7.26961L7.30894 2.65561ZM3.76894 1.02161C4.11893 0.671512 4.5394 0.399874 5.00242 0.224736C5.46544 0.0495976 5.96043 -0.0250331 6.45451 0.00579951C6.94858 0.0366321 7.43045 0.172222 7.8681 0.403567C8.30576 0.634911 8.68919 0.956717 8.99294 1.34761L12.5809 5.95961C13.2389 6.80561 13.4709 7.90761 13.2109 8.94761L12.1169 13.3276C12.0608 13.5545 12.064 13.792 12.1264 14.0173C12.1887 14.2425 12.3081 14.4479 12.4729 14.6136L17.3869 19.5276C17.5528 19.6928 17.7586 19.8123 17.9842 19.8747C18.2098 19.9371 18.4478 19.9401 18.6749 19.8836L23.0529 18.7896C23.5662 18.662 24.1017 18.6524 24.6193 18.7616C25.1368 18.8707 25.6229 19.0957 26.0409 19.4196L30.6529 23.0076C32.3109 24.2976 32.4629 26.7476 30.9789 28.2296L28.9109 30.2976C27.4309 31.7776 25.2189 32.4276 23.1569 31.7016C17.8783 29.8468 13.086 26.8251 9.13694 22.8616C5.17369 18.9131 2.15205 14.1216 0.296942 8.84361C-0.427058 6.78361 0.222942 4.56961 1.70294 3.08961L3.76894 1.02161Z" fill="white"/>
</svg>
