<svg width="32" height="24" viewBox="0 0 32 24" fill="none" xmlns="http://www.w3.org/2000/svg">
<path d="M4.36864e-09 3C4.36864e-09 2.20435 0.316071 1.44129 0.87868 0.87868C1.44129 0.316071 2.20435 0 3 0H21C21.7957 0 22.5587 0.316071 23.1213 0.87868C23.6839 1.44129 24 2.20435 24 3V6H26.04C26.4895 6.0004 26.9331 6.1018 27.3381 6.29669C27.7432 6.49159 28.0992 6.77501 28.38 7.126L31.342 10.826C31.7682 11.3584 32.0003 12.0201 32 12.702V17C32 17.7956 31.6839 18.5587 31.1213 19.1213C30.5587 19.6839 29.7957 20 29 20H28C28 21.0609 27.5786 22.0783 26.8284 22.8284C26.0783 23.5786 25.0609 24 24 24C22.9391 24 21.9217 23.5786 21.1716 22.8284C20.4214 22.0783 20 21.0609 20 20H10C10.0012 20.5332 9.8957 21.0612 9.68985 21.553C9.48399 22.0448 9.18189 22.4905 8.8013 22.8639C8.42071 23.2373 7.96931 23.5309 7.47364 23.7273C6.97797 23.9237 6.44804 24.0191 5.91499 24.0077C5.38194 23.9964 4.85653 23.8786 4.36966 23.6613C3.88279 23.444 3.44427 23.1315 3.0799 22.7423C2.71552 22.3531 2.43263 21.8949 2.24787 21.3948C2.0631 20.8947 1.98019 20.3626 2.004 19.83C1.4181 19.6238 0.910646 19.2408 0.551689 18.7339C0.192731 18.227 -3.35039e-05 17.6211 4.36864e-09 17V3ZM2.588 17.912C2.94998 17.3205 3.45954 16.8332 4.06665 16.4981C4.67377 16.1629 5.3576 15.9914 6.05103 16.0002C6.74446 16.0091 7.42367 16.1981 8.02202 16.5487C8.62036 16.8993 9.11727 17.3994 9.464 18H20.536C20.8871 17.392 21.392 16.8871 22 16.536V3C22 2.73478 21.8946 2.48043 21.7071 2.29289C21.5196 2.10536 21.2652 2 21 2H3C2.73478 2 2.48043 2.10536 2.29289 2.29289C2.10536 2.48043 2 2.73478 2 3V17C1.99984 17.1925 2.05524 17.3809 2.15954 17.5427C2.26384 17.7045 2.41261 17.8327 2.588 17.912ZM24 16C24.7021 16 25.3919 16.1848 25.9999 16.5359C26.608 16.887 27.1129 17.3919 27.464 18H29C29.2652 18 29.5196 17.8946 29.7071 17.7071C29.8946 17.5196 30 17.2652 30 17V12.7C29.9996 12.4731 29.922 12.253 29.78 12.076L26.82 8.376C26.7265 8.25888 26.6078 8.16428 26.4728 8.0992C26.3378 8.03411 26.1899 8.00021 26.04 8H24V16ZM6 18C5.46957 18 4.96086 18.2107 4.58579 18.5858C4.21071 18.9609 4 19.4696 4 20C4 20.5304 4.21071 21.0391 4.58579 21.4142C4.96086 21.7893 5.46957 22 6 22C6.53043 22 7.03914 21.7893 7.41421 21.4142C7.78929 21.0391 8 20.5304 8 20C8 19.4696 7.78929 18.9609 7.41421 18.5858C7.03914 18.2107 6.53043 18 6 18ZM24 18C23.4696 18 22.9609 18.2107 22.5858 18.5858C22.2107 18.9609 22 19.4696 22 20C22 20.5304 22.2107 21.0391 22.5858 21.4142C22.9609 21.7893 23.4696 22 24 22C24.5304 22 25.0391 21.7893 25.4142 21.4142C25.7893 21.0391 26 20.5304 26 20C26 19.4696 25.7893 18.9609 25.4142 18.5858C25.0391 18.2107 24.5304 18 24 18Z" fill="#F80032"/>
</svg>
