<svg width="28" height="32" viewBox="0 0 28 32" fill="none" xmlns="http://www.w3.org/2000/svg">
<path d="M16.998 3C16.998 3.79565 16.6819 4.55871 16.1193 5.12132C15.5567 5.68393 14.7937 6 13.998 6C13.2024 6 12.4393 5.68393 11.8767 5.12132C11.3141 4.55871 10.998 3.79565 10.998 3C10.998 2.20435 11.3141 1.44129 11.8767 0.87868C12.4393 0.316071 13.2024 0 13.998 0C14.7937 0 15.5567 0.316071 16.1193 0.87868C16.6819 1.44129 16.998 2.20435 16.998 3ZM9.998 11L0.928002 10.116C0.659496 10.0829 0.413761 9.94849 0.240958 9.74033C0.0681543 9.53216 -0.0186886 9.26589 -0.00184436 8.99588C0.0149999 8.72586 0.134261 8.47245 0.331596 8.28737C0.52893 8.1023 0.789459 7.99951 1.06 8H26.938C27.2085 7.99951 27.4691 8.1023 27.6664 8.28737C27.8637 8.47245 27.983 8.72586 27.9998 8.99588C28.0167 9.26589 27.9299 9.53216 27.757 9.74033C27.5842 9.94849 27.3385 10.0829 27.07 10.116L17.998 11V18L18.902 30.84C18.927 31.1094 18.849 31.3783 18.6836 31.5925C18.5183 31.8067 18.278 31.9503 18.011 31.9944C17.7441 32.0386 17.4703 31.9799 17.2449 31.8303C17.0194 31.6806 16.859 31.4511 16.796 31.188L14.484 19.94C14.356 19.436 13.64 19.436 13.512 19.94L11.2 31.188C11.137 31.4511 10.9766 31.6806 10.7512 31.8303C10.5257 31.9799 10.252 32.0386 9.98499 31.9944C9.71803 31.9503 9.47769 31.8067 9.31237 31.5925C9.14705 31.3783 9.06903 31.1094 9.094 30.84L9.998 18V11Z" fill="#F80032"/>
</svg>
