<svg width="24" height="24" viewBox="0 0 24 24" fill="none" xmlns="http://www.w3.org/2000/svg">
<path d="M0.293263 1.70731C0.200287 1.61433 0.126535 1.50396 0.0762167 1.38248C0.0258985 1.261 9.7966e-10 1.1308 0 0.99931C-9.7966e-10 0.867822 0.0258985 0.737622 0.0762167 0.616143C0.126535 0.494664 0.200287 0.384286 0.293263 0.29131C0.386239 0.198334 0.496617 0.124582 0.618096 0.0742636C0.739575 0.0239454 0.869775 -0.00195313 1.00126 -0.00195312C1.13275 -0.00195312 1.26295 0.0239454 1.38443 0.0742636C1.50591 0.124582 1.61629 0.198334 1.70926 0.29131L12.0013 10.5853L22.2933 0.29131C22.3862 0.198334 22.4966 0.124582 22.6181 0.0742636C22.7396 0.0239454 22.8698 -0.00195312 23.0013 -0.00195312C23.1327 -0.00195313 23.263 0.0239454 23.3844 0.0742636C23.5059 0.124582 23.6163 0.198334 23.7093 0.29131C23.8022 0.384286 23.876 0.494664 23.9263 0.616143C23.9766 0.737622 24.0025 0.867822 24.0025 0.99931C24.0025 1.1308 23.9766 1.261 23.9263 1.38248C23.876 1.50396 23.8022 1.61433 23.7093 1.70731L13.4153 11.9993L23.7093 22.2913C23.8022 22.3843 23.876 22.4947 23.9263 22.6161C23.9766 22.7376 24.0025 22.8678 24.0025 22.9993C24.0025 23.1308 23.9766 23.261 23.9263 23.3825C23.876 23.504 23.8022 23.6143 23.7093 23.7073C23.6163 23.8003 23.5059 23.874 23.3844 23.9244C23.263 23.9747 23.1327 24.0006 23.0013 24.0006C22.8698 24.0006 22.7396 23.9747 22.6181 23.9244C22.4966 23.874 22.3862 23.8003 22.2933 23.7073L12.0013 13.4133L1.70926 23.7073C1.61629 23.8003 1.50591 23.874 1.38443 23.9244C1.26295 23.9747 1.13275 24.0006 1.00126 24.0006C0.869775 24.0006 0.739575 23.9747 0.618096 23.9244C0.496617 23.874 0.386239 23.8003 0.293263 23.7073C0.200287 23.6143 0.126535 23.504 0.0762167 23.3825C0.0258985 23.261 0 23.1308 0 22.9993C0 22.8678 0.0258985 22.7376 0.0762167 22.6161C0.126535 22.4947 0.200287 22.3843 0.293263 22.2913L10.5873 11.9993L0.293263 1.70731Z" fill="#F80032"/>
</svg>
