<svg width="32" height="23" viewBox="0 0 32 23" fill="none" xmlns="http://www.w3.org/2000/svg">
<path d="M16.102 -0.00195312H16.28C17.924 0.00404688 26.254 0.0640472 28.5 0.668047C29.179 0.852384 29.7977 1.21169 30.2943 1.71006C30.7909 2.20843 31.1481 2.82842 31.33 3.50805C31.532 4.26805 31.674 5.27405 31.77 6.31205L31.79 6.52005L31.834 7.04005L31.85 7.24805C31.98 9.07605 31.996 10.788 31.998 11.162V11.312C31.996 11.7 31.978 13.528 31.834 15.432L31.818 15.642L31.8 15.85C31.7 16.994 31.552 18.13 31.33 18.966C31.1481 19.6457 30.7909 20.2657 30.2943 20.764C29.7977 21.2624 29.179 21.6217 28.5 21.806C26.18 22.43 17.362 22.474 16.14 22.476H15.856C15.238 22.476 12.682 22.464 10.002 22.372L9.662 22.36L9.488 22.352L8.804 22.324C6.584 22.226 4.47 22.068 3.496 21.804C2.81725 21.6199 2.1987 21.2609 1.7021 20.7629C1.20551 20.2649 0.848247 19.6453 0.666 18.966C0.444 18.132 0.296 16.994 0.196 15.85L0.164 15.432C0.0647268 14.0769 0.0100306 12.7188 0 11.36V11.114C0.004 10.684 0.02 9.19805 0.128 7.55805L0.142 7.35205L0.148 7.24805L0.164 7.04005L0.208 6.52005L0.228 6.31205C0.324 5.27405 0.466 4.26605 0.668 3.50805C0.849941 2.82842 1.20706 2.20843 1.70368 1.71006C2.2003 1.21169 2.81901 0.852384 3.498 0.668047C4.472 0.408047 6.586 0.248047 8.806 0.148047L9.146 0.134047L9.662 0.116047L10.004 0.102047C11.9074 0.0408541 13.8116 0.00685039 15.716 4.69685e-05L16.102 -0.00195312ZM12.8 6.41805V16.054L21.114 11.238L12.8 6.41805Z" fill="#666666"/>
</svg>
